<svg width="458" height="305" viewBox="0 0 458 305" fill="none" xmlns="http://www.w3.org/2000/svg">
<path d="M149.125 90.463H71.79V37.6187H149.125V90.463ZM72.4006 89.853H148.514V38.2287H72.4006V89.853Z" fill="#EBEBEB"/>
<path d="M77.8356 41.0225C77.8356 41.3265 77.7453 41.6238 77.5762 41.8765C77.4071 42.1293 77.1668 42.3264 76.8856 42.4427C76.6044 42.5591 76.295 42.5895 75.9965 42.5302C75.698 42.4709 75.4238 42.3245 75.2085 42.1095C74.9933 41.8945 74.8468 41.6206 74.7874 41.3224C74.728 41.0242 74.7585 40.7151 74.875 40.4343C74.9914 40.1534 75.1887 39.9133 75.4417 39.7444C75.6948 39.5755 75.9923 39.4853 76.2967 39.4853C76.7048 39.4853 77.0962 39.6473 77.3848 39.9356C77.6734 40.2238 77.8356 40.6148 77.8356 41.0225Z" fill="#A6A6A6"/>
<path d="M84.1194 41.0225C84.1194 41.3265 84.0291 41.6238 83.86 41.8765C83.6909 42.1293 83.4506 42.3264 83.1694 42.4427C82.8882 42.5591 82.5788 42.5895 82.2803 42.5302C81.9818 42.4709 81.7076 42.3245 81.4924 42.1095C81.2771 41.8945 81.1306 41.6206 81.0712 41.3224C81.0118 41.0242 81.0423 40.7151 81.1588 40.4343C81.2752 40.1534 81.4725 39.9133 81.7255 39.7444C81.9786 39.5755 82.2761 39.4853 82.5805 39.4853C82.9886 39.4853 83.3801 39.6473 83.6687 39.9356C83.9572 40.2238 84.1194 40.6148 84.1194 41.0225Z" fill="#EBEBEB"/>
<path d="M90.4092 41.0225C90.4104 41.3283 90.3207 41.6275 90.1514 41.8822C89.9821 42.1369 89.7409 42.3357 89.4583 42.4532C89.1758 42.5708 88.8646 42.6019 88.5643 42.5425C88.2641 42.4832 87.9882 42.3361 87.7718 42.1199C87.5553 41.9037 87.4081 41.6281 87.3487 41.3282C87.2892 41.0282 87.3204 40.7174 87.4381 40.4352C87.5557 40.1529 87.7547 39.912 88.0097 39.7429C88.2647 39.5737 88.5643 39.4841 88.8704 39.4853C89.2785 39.4853 89.6699 39.6473 89.9585 39.9355C90.2471 40.2238 90.4092 40.6148 90.4092 41.0225Z" fill="#52AC6C"/>
<path d="M148.819 43.7248H72.0953V44.3348H148.819V43.7248Z" fill="#EBEBEB"/>
<path d="M402.13 213.89H401.519V137.134L417.843 114.881V73.2976H418.453V115.083L402.13 137.335V213.89Z" fill="#EBEBEB"/>
<path d="M418.148 73.627C417.8 73.627 417.46 73.524 417.171 73.3309C416.882 73.1379 416.656 72.8635 416.523 72.5425C416.39 72.2215 416.355 71.8683 416.423 71.5275C416.491 71.1867 416.658 70.8737 416.904 70.628C417.15 70.3823 417.464 70.2149 417.805 70.1472C418.146 70.0794 418.5 70.1142 418.821 70.2471C419.142 70.3801 419.417 70.6053 419.61 70.8942C419.803 71.1831 419.907 71.5227 419.907 71.8702C419.907 72.3361 419.721 72.783 419.391 73.1124C419.062 73.4419 418.614 73.627 418.148 73.627ZM418.148 70.7295C417.921 70.7295 417.698 70.7969 417.509 70.9232C417.321 71.0495 417.173 71.229 417.087 71.4389C417 71.6488 416.978 71.8797 417.022 72.1023C417.067 72.3249 417.177 72.5292 417.338 72.6894C417.499 72.8495 417.705 72.9582 417.928 73.0018C418.151 73.0454 418.382 73.0218 418.591 72.9341C418.801 72.8463 418.98 72.6984 419.105 72.509C419.231 72.3196 419.297 72.0973 419.296 71.8702C419.288 71.5719 419.163 71.2887 418.949 71.0811C418.734 70.8736 418.447 70.7583 418.148 70.76V70.7295Z" fill="#EBEBEB"/>
<path d="M406.338 213.89H405.727V139.824L422.05 117.571V88.5415H422.661V117.767L406.338 140.026V213.89Z" fill="#EBEBEB"/>
<path d="M422.355 88.877C422.007 88.8782 421.667 88.7762 421.377 88.5839C421.087 88.3916 420.86 88.1177 420.726 87.7968C420.592 87.4759 420.556 87.1224 420.624 86.7812C420.691 86.4401 420.858 86.1265 421.104 85.8802C421.349 85.6338 421.663 85.4659 422.004 85.3976C422.345 85.3294 422.699 85.3638 423.021 85.4966C423.343 85.6294 423.618 85.8545 423.811 86.1436C424.005 86.4326 424.108 86.7725 424.108 87.1202C424.108 87.5851 423.924 88.031 423.595 88.3603C423.267 88.6896 422.821 88.8754 422.355 88.877ZM422.355 85.9734C422.128 85.9722 421.906 86.0384 421.716 86.1637C421.526 86.289 421.378 86.4677 421.29 86.6771C421.203 86.8866 421.179 87.1173 421.223 87.3402C421.266 87.563 421.375 87.768 421.535 87.929C421.696 88.0899 421.9 88.1998 422.123 88.2445C422.346 88.2893 422.577 88.2669 422.787 88.1803C422.997 88.0937 423.177 87.9467 423.303 87.758C423.43 87.5693 423.497 87.3473 423.497 87.1202C423.497 86.8171 423.377 86.5264 423.163 86.3115C422.949 86.0966 422.659 85.975 422.355 85.9734Z" fill="#EBEBEB"/>
<path d="M398.081 112.38H397.471V213.89H398.081V112.38Z" fill="#EBEBEB"/>
<path d="M397.776 112.685C397.428 112.687 397.087 112.585 396.797 112.392C396.507 112.2 396.281 111.926 396.147 111.605C396.013 111.284 395.977 110.931 396.044 110.59C396.111 110.248 396.278 109.935 396.524 109.688C396.77 109.442 397.083 109.274 397.425 109.206C397.766 109.138 398.12 109.172 398.442 109.305C398.763 109.438 399.038 109.663 399.232 109.952C399.425 110.241 399.529 110.581 399.529 110.929C399.529 111.393 399.344 111.839 399.016 112.169C398.687 112.498 398.241 112.684 397.776 112.685ZM397.776 109.788C397.548 109.787 397.326 109.853 397.136 109.979C396.946 110.104 396.798 110.283 396.71 110.493C396.623 110.703 396.6 110.934 396.644 111.157C396.688 111.38 396.797 111.585 396.958 111.746C397.119 111.906 397.324 112.016 397.547 112.06C397.771 112.104 398.002 112.08 398.212 111.993C398.422 111.905 398.601 111.757 398.727 111.568C398.853 111.378 398.919 111.156 398.918 110.929C398.913 110.629 398.791 110.342 398.578 110.132C398.364 109.921 398.076 109.802 397.776 109.8V109.788Z" fill="#EBEBEB"/>
<path d="M394.179 213.89H393.569V162.376L382.491 141.496V103.987H383.102V141.343L394.179 162.223V213.89Z" fill="#EBEBEB"/>
<path d="M382.79 104.31C382.442 104.31 382.102 104.207 381.813 104.014C381.524 103.821 381.298 103.547 381.165 103.226C381.032 102.905 380.997 102.551 381.065 102.21C381.133 101.87 381.301 101.557 381.547 101.311C381.793 101.065 382.106 100.898 382.447 100.83C382.788 100.762 383.142 100.797 383.463 100.93C383.785 101.063 384.059 101.288 384.253 101.577C384.446 101.866 384.549 102.206 384.549 102.553C384.549 103.019 384.364 103.466 384.034 103.795C383.704 104.125 383.257 104.31 382.79 104.31ZM382.79 101.413C382.563 101.413 382.341 101.48 382.152 101.606C381.963 101.733 381.816 101.912 381.729 102.122C381.642 102.332 381.62 102.563 381.665 102.785C381.709 103.008 381.819 103.212 381.981 103.372C382.142 103.533 382.347 103.641 382.57 103.685C382.793 103.728 383.024 103.705 383.234 103.617C383.443 103.529 383.622 103.381 383.748 103.192C383.873 103.003 383.939 102.78 383.938 102.553C383.941 102.401 383.913 102.251 383.856 102.11C383.799 101.969 383.715 101.841 383.608 101.733C383.501 101.625 383.374 101.539 383.233 101.481C383.093 101.423 382.942 101.393 382.79 101.394V101.413Z" fill="#EBEBEB"/>
<path d="M390.301 213.89H389.691V164.609L376.629 141.526V116.791H377.239V141.368L390.301 164.45V213.89Z" fill="#EBEBEB"/>
<path d="M376.934 117.12C376.586 117.121 376.245 117.019 375.955 116.827C375.664 116.634 375.438 116.36 375.304 116.038C375.17 115.717 375.135 115.363 375.203 115.022C375.27 114.681 375.438 114.367 375.684 114.121C375.931 113.875 376.245 113.708 376.586 113.64C376.928 113.572 377.282 113.608 377.604 113.741C377.925 113.875 378.2 114.101 378.393 114.391C378.586 114.681 378.688 115.021 378.687 115.369C378.685 115.833 378.5 116.278 378.172 116.605C377.843 116.933 377.398 117.118 376.934 117.12ZM376.934 114.223C376.707 114.221 376.484 114.288 376.295 114.413C376.105 114.538 375.957 114.717 375.869 114.926C375.781 115.136 375.758 115.366 375.801 115.589C375.845 115.812 375.954 116.017 376.114 116.178C376.274 116.339 376.479 116.449 376.702 116.494C376.925 116.538 377.156 116.516 377.366 116.429C377.576 116.343 377.756 116.196 377.882 116.007C378.008 115.818 378.076 115.596 378.076 115.369C378.079 115.217 378.052 115.066 377.996 114.924C377.94 114.783 377.857 114.654 377.751 114.545C377.644 114.436 377.517 114.349 377.377 114.289C377.237 114.23 377.086 114.199 376.934 114.198V114.223Z" fill="#EBEBEB"/>
<path d="M58.6851 213.89H58.0744V173.935L41.7513 151.683V128.198H42.3619V151.481L58.6851 173.734V213.89Z" fill="#EBEBEB"/>
<path d="M42.0566 128.527C41.7085 128.528 41.3679 128.426 41.0779 128.234C40.7879 128.042 40.5615 127.768 40.4274 127.447C40.2934 127.126 40.2577 126.772 40.3249 126.431C40.392 126.09 40.559 125.776 40.8048 125.53C41.0505 125.284 41.3638 125.116 41.7052 125.048C42.0465 124.979 42.4004 125.014 42.7221 125.147C43.0439 125.279 43.3189 125.505 43.5124 125.794C43.7059 126.083 43.8092 126.423 43.8092 126.77C43.8093 127.235 43.6248 127.681 43.2963 128.01C42.9678 128.34 42.522 128.525 42.0566 128.527ZM42.0566 125.63C41.8291 125.628 41.6063 125.695 41.4165 125.82C41.2268 125.946 41.0787 126.125 40.9911 126.335C40.9034 126.544 40.8802 126.776 40.9243 126.999C40.9684 127.222 41.0778 127.426 41.2387 127.587C41.3997 127.748 41.6048 127.857 41.8281 127.901C42.0513 127.945 42.2827 127.922 42.4927 127.835C42.7027 127.747 42.882 127.599 43.0076 127.41C43.1333 127.22 43.1998 126.998 43.1986 126.77C43.1891 126.474 43.0648 126.192 42.8518 125.985C42.6389 125.778 42.3538 125.661 42.0566 125.66V125.63Z" fill="#EBEBEB"/>
<path d="M54.4776 213.89H53.8669V176.626L37.5438 154.367V143.442H38.1545V154.171L54.4776 176.424V213.89Z" fill="#EBEBEB"/>
<path d="M37.8613 143.777C37.5135 143.777 37.1734 143.674 36.8842 143.481C36.595 143.288 36.3696 143.014 36.2365 142.693C36.1034 142.372 36.0685 142.018 36.1364 141.677C36.2043 141.337 36.3718 141.024 36.6177 140.778C36.8637 140.532 37.1771 140.365 37.5182 140.297C37.8594 140.229 38.213 140.264 38.5344 140.397C38.8557 140.53 39.1304 140.755 39.3236 141.044C39.5169 141.333 39.62 141.673 39.62 142.02C39.62 142.486 39.4347 142.933 39.1049 143.262C38.7751 143.592 38.3278 143.777 37.8613 143.777ZM37.8613 140.873C37.6343 140.873 37.4123 140.941 37.2235 141.067C37.0347 141.193 36.8876 141.372 36.8007 141.581C36.7138 141.791 36.691 142.022 36.7353 142.244C36.7796 142.466 36.889 142.671 37.0495 142.831C37.2101 142.992 37.4146 143.101 37.6373 143.145C37.86 143.189 38.0909 143.167 38.3007 143.08C38.5104 142.993 38.6897 142.846 38.8159 142.657C38.942 142.469 39.0094 142.247 39.0094 142.02C39.0094 141.716 38.8884 141.424 38.6731 141.209C38.4578 140.994 38.1658 140.873 37.8613 140.873Z" fill="#EBEBEB"/>
<path d="M62.7338 148.98H62.1231V213.89H62.7338V148.98Z" fill="#EBEBEB"/>
<path d="M62.4285 149.285C62.0806 149.285 61.7406 149.182 61.4514 148.989C61.1621 148.796 60.9367 148.522 60.8036 148.201C60.6705 147.88 60.6357 147.527 60.7035 147.186C60.7714 146.845 60.9389 146.532 61.1849 146.286C61.4308 146.041 61.7442 145.873 62.0853 145.805C62.4265 145.738 62.7801 145.772 63.1015 145.905C63.4229 146.038 63.6975 146.264 63.8908 146.552C64.084 146.841 64.1872 147.181 64.1872 147.529C64.1872 147.994 64.0019 148.441 63.6721 148.771C63.3422 149.1 62.8949 149.285 62.4285 149.285ZM62.4285 146.388C62.2011 146.388 61.9789 146.455 61.79 146.582C61.6011 146.708 61.4539 146.887 61.3672 147.097C61.2805 147.307 61.2581 147.538 61.3029 147.761C61.3477 147.983 61.4577 148.188 61.6188 148.348C61.78 148.508 61.9851 148.617 62.2083 148.66C62.4314 148.704 62.6624 148.68 62.872 148.592C63.0817 148.505 63.2606 148.357 63.386 148.167C63.5114 147.978 63.5777 147.756 63.5765 147.529C63.5733 147.227 63.4507 146.939 63.2356 146.728C63.0205 146.516 62.7303 146.398 62.4285 146.4V146.388Z" fill="#EBEBEB"/>
<path d="M66.6359 213.89H66.0253V180.523L66.0558 180.456L77.1028 159.643V122.287H77.7134V159.796L77.6829 159.863L66.6359 180.676V213.89Z" fill="#EBEBEB"/>
<path d="M77.4081 122.61C77.0603 122.61 76.7203 122.507 76.431 122.314C76.1418 122.121 75.9164 121.847 75.7833 121.526C75.6502 121.205 75.6153 120.851 75.6832 120.511C75.7511 120.17 75.9186 119.857 76.1645 119.611C76.4105 119.365 76.7239 119.198 77.065 119.13C77.4062 119.062 77.7598 119.097 78.0812 119.23C78.4025 119.363 78.6772 119.588 78.8705 119.877C79.0637 120.166 79.1669 120.506 79.1669 120.853C79.1669 121.319 78.9816 121.766 78.6517 122.095C78.3219 122.425 77.8746 122.61 77.4081 122.61ZM77.4081 119.713C77.1808 119.713 76.9586 119.78 76.7697 119.906C76.5808 120.033 76.4336 120.212 76.3469 120.422C76.2602 120.632 76.2378 120.863 76.2826 121.085C76.3274 121.308 76.4373 121.512 76.5985 121.672C76.7597 121.833 76.9648 121.941 77.1879 121.985C77.411 122.028 77.6421 122.005 77.8517 121.917C78.0614 121.829 78.2403 121.681 78.3657 121.492C78.4911 121.303 78.5574 121.08 78.5562 120.853C78.5586 120.701 78.5307 120.551 78.474 120.41C78.4173 120.269 78.3331 120.141 78.2261 120.033C78.1192 119.925 77.9918 119.839 77.8513 119.781C77.7108 119.723 77.5602 119.693 77.4081 119.694V119.713Z" fill="#EBEBEB"/>
<path d="M70.5137 213.89H69.903V182.75L69.9397 182.677L82.9652 159.668V135.091H83.5758V159.826L83.5331 159.893L70.5137 182.909V213.89Z" fill="#EBEBEB"/>
<path d="M83.2706 135.42C82.9222 135.421 82.5813 135.319 82.2912 135.126C82.001 134.934 81.7747 134.66 81.6408 134.338C81.5069 134.017 81.4716 133.663 81.5392 133.322C81.6069 132.981 81.7745 132.667 82.0209 132.421C82.2672 132.175 82.5811 132.007 82.9228 131.94C83.2646 131.872 83.6187 131.908 83.9403 132.041C84.2619 132.175 84.5365 132.401 84.7293 132.691C84.9221 132.981 85.0244 133.321 85.0232 133.669C85.0216 134.133 84.8364 134.578 84.5081 134.905C84.1797 135.233 83.7349 135.418 83.2706 135.42ZM83.2706 132.523C83.0432 132.521 82.8207 132.588 82.6311 132.713C82.4415 132.838 82.2934 133.017 82.2055 133.226C82.1177 133.436 82.0941 133.666 82.1377 133.889C82.1813 134.112 82.2902 134.317 82.4505 134.478C82.6108 134.639 82.8154 134.749 83.0382 134.794C83.2611 134.838 83.4922 134.816 83.7024 134.729C83.9125 134.643 84.0922 134.496 84.2186 134.307C84.345 134.118 84.4125 133.896 84.4125 133.669C84.4157 133.517 84.3886 133.366 84.3328 133.224C84.2769 133.083 84.1934 132.954 84.0871 132.845C83.9809 132.736 83.8539 132.649 83.7137 132.589C83.5735 132.53 83.4229 132.499 83.2706 132.498V132.523Z" fill="#EBEBEB"/>
<path d="M418.917 77.9275L423.192 71.065L421.091 69.7657C420.785 69.5757 420.539 69.3031 420.381 68.9793C420.223 68.6555 420.161 68.2937 420.2 67.9357C420.232 67.529 420.245 67.1224 420.236 66.7157C420.225 66.3616 420.313 66.0115 420.49 65.7045C420.667 65.3975 420.926 65.1457 421.238 64.9772L423.418 63.806L419.528 56.73L417.348 57.9012C417.033 58.0664 416.679 58.1414 416.324 58.1177C415.97 58.094 415.629 57.9726 415.339 57.767C415.009 57.5413 414.667 57.3278 414.313 57.157C413.999 56.9902 413.737 56.7391 413.558 56.4319C413.379 56.1248 413.289 55.7738 413.299 55.4185L413.379 52.9419L405.3 52.6918L405.22 55.1745C405.207 55.5298 405.094 55.8744 404.896 56.1696C404.697 56.4648 404.421 56.6989 404.097 56.8459C403.913 56.9313 403.736 57.0167 403.565 57.1143C403.394 57.2119 403.217 57.3034 403.046 57.4071C402.744 57.5927 402.396 57.691 402.042 57.691C401.687 57.691 401.339 57.5927 401.037 57.4071L398.918 56.0956L394.643 62.9581L396.75 64.2696C397.057 64.4591 397.304 64.7316 397.461 65.0556C397.619 65.3795 397.682 65.7416 397.642 66.0996C397.608 66.5053 397.595 66.9126 397.605 67.3196C397.615 67.6749 397.525 68.0259 397.348 68.3338C397.17 68.6417 396.91 68.8945 396.598 69.0642L394.454 70.15L398.277 77.2687L400.457 76.1036C400.771 75.9375 401.125 75.8615 401.48 75.8842C401.834 75.9068 402.176 76.0271 402.466 76.2317C402.797 76.4534 403.139 76.657 403.492 76.8417C403.806 77.0085 404.068 77.2596 404.247 77.5668C404.426 77.8739 404.515 78.2249 404.506 78.5802L404.432 81.0568L412.512 81.3069L412.591 78.8303C412.604 78.4757 412.716 78.1318 412.915 77.8376C413.113 77.5433 413.39 77.3103 413.715 77.165L414.246 76.8966L414.765 76.5977C415.068 76.4122 415.417 76.3141 415.772 76.3141C416.128 76.3141 416.477 76.4122 416.78 76.5977L418.917 77.9275ZM412.078 72.834C410.923 73.452 409.61 73.7141 408.306 73.5869C407.002 73.4598 405.765 72.9493 404.751 72.1198C403.737 71.2904 402.993 70.1793 402.611 68.9271C402.229 67.6749 402.228 66.3378 402.607 65.0849C402.986 63.8319 403.729 62.7194 404.741 61.8879C405.753 61.0565 406.989 60.5435 408.293 60.4138C409.597 60.2841 410.91 60.5435 412.066 61.1593C413.223 61.775 414.17 62.7194 414.789 63.8731C415.199 64.6411 415.454 65.4824 415.538 66.3487C415.622 67.215 415.534 68.0893 415.279 68.9217C415.024 69.754 414.608 70.528 414.053 71.1994C413.499 71.8707 412.817 72.4262 412.047 72.834H412.078Z" fill="#EBEBEB"/>
<path d="M47.1313 138.934L52.0166 136.103L51.1495 134.603C51.0252 134.387 50.964 134.14 50.9726 133.891C50.9813 133.642 51.0594 133.4 51.1983 133.194C51.353 132.958 51.4935 132.714 51.6197 132.462C51.733 132.236 51.9075 132.046 52.1235 131.914C52.3394 131.783 52.5881 131.715 52.841 131.717H54.5753V126.057H52.841C52.5881 126.059 52.3394 125.991 52.1235 125.859C51.9075 125.728 51.733 125.538 51.6197 125.312C51.4935 125.06 51.353 124.816 51.1983 124.58C51.0594 124.373 50.9813 124.132 50.9726 123.883C50.964 123.634 51.0252 123.387 51.1495 123.171L52.0166 121.671L47.1313 118.84L46.2641 120.347C46.1414 120.559 45.9623 120.733 45.7467 120.849C45.5311 120.965 45.2874 121.019 45.0428 121.006H44.1817C43.9379 121.019 43.6952 120.965 43.4799 120.85C43.2646 120.735 43.0849 120.563 42.9604 120.353L42.0872 118.84L37.2018 121.671L38.069 123.177C38.1932 123.393 38.2544 123.64 38.2458 123.889C38.2372 124.138 38.159 124.379 38.0201 124.586C37.8667 124.821 37.726 125.063 37.5988 125.312C37.4855 125.538 37.3109 125.728 37.0949 125.859C36.879 125.991 36.6304 126.059 36.3774 126.057H34.6248V131.717H36.3591C36.612 131.715 36.8607 131.783 37.0766 131.914C37.2926 132.046 37.4671 132.236 37.5804 132.462C37.7077 132.711 37.8483 132.953 38.0018 133.187C38.1405 133.396 38.2186 133.638 38.2272 133.888C38.2359 134.138 38.1747 134.385 38.0507 134.603L37.1835 136.103L42.0688 138.934L42.9421 137.427C43.0663 137.216 43.2458 137.044 43.461 136.928C43.6762 136.812 43.9191 136.756 44.1634 136.768C44.2978 136.768 44.4382 136.768 44.5787 136.768C44.7191 136.768 44.8596 136.768 45 136.768C45.2443 136.757 45.4869 136.813 45.702 136.929C45.9171 137.045 46.0966 137.217 46.2214 137.427L47.1313 138.934ZM44.5787 133.523C43.661 133.522 42.7643 133.249 42.0019 132.739C41.2395 132.228 40.6456 131.504 40.2953 130.657C39.9449 129.81 39.8539 128.878 40.0336 127.979C40.2134 127.08 40.6559 126.254 41.3052 125.607C41.9545 124.959 42.7815 124.518 43.6816 124.34C44.5817 124.161 45.5146 124.253 46.3623 124.604C47.2099 124.955 47.9344 125.55 48.4441 126.312C48.9538 127.074 49.2259 127.97 49.2259 128.887C49.2267 129.496 49.107 130.1 48.8736 130.663C48.6403 131.227 48.2979 131.738 47.8662 132.169C47.4344 132.6 46.9217 132.941 46.3576 133.173C45.7934 133.406 45.1889 133.525 44.5787 133.523Z" fill="#EBEBEB"/>
<path d="M393.929 82.8929L391.101 78.0129L389.605 78.8608C389.388 78.9847 389.14 79.0458 388.89 79.0372C388.64 79.0286 388.397 78.9506 388.189 78.812C387.953 78.6574 387.708 78.5168 387.456 78.3911C387.23 78.2779 387.04 78.1036 386.908 77.8878C386.776 77.6721 386.708 77.4238 386.711 77.1711V75.4387H381.056V77.1711C381.059 77.4238 380.99 77.6721 380.859 77.8878C380.727 78.1036 380.537 78.2779 380.311 78.3911C380.057 78.5181 379.811 78.6586 379.572 78.812C379.365 78.9507 379.123 79.0288 378.874 79.0375C378.624 79.0461 378.378 78.9849 378.161 78.8608L376.659 77.9946L373.832 82.8746L375.34 83.7408C375.554 83.8689 375.729 84.0533 375.845 84.2738C375.962 84.4943 376.015 84.7425 376 84.9913C376 85.1316 376 85.2719 376 85.4061C376 85.5403 376 85.6867 376 85.827C376.012 86.0712 375.957 86.3141 375.841 86.5292C375.724 86.7443 375.551 86.9234 375.34 87.047L373.832 87.9193L376.659 92.7993L378.168 91.9331C378.384 91.809 378.631 91.7479 378.88 91.7565C379.129 91.7651 379.371 91.8432 379.578 91.9819C379.818 92.1365 380.063 92.2768 380.311 92.4028C380.537 92.516 380.727 92.6904 380.859 92.9061C380.99 93.1218 381.059 93.3702 381.056 93.6228V95.3552H386.717V93.6228C386.714 93.3702 386.783 93.1218 386.914 92.9061C387.046 92.6904 387.236 92.516 387.462 92.4028C387.714 92.2727 387.959 92.1324 388.195 91.9819C388.402 91.8432 388.644 91.7651 388.893 91.7565C389.142 91.7479 389.389 91.809 389.605 91.9331L391.114 92.7993L393.941 87.9193L392.433 87.0531C392.223 86.9282 392.052 86.7487 391.936 86.5337C391.821 86.3188 391.767 86.0766 391.779 85.8331C391.779 85.6928 391.779 85.5525 391.779 85.4122C391.779 85.2719 391.779 85.1377 391.779 84.9974C391.763 84.7485 391.816 84.5001 391.933 84.2794C392.049 84.0587 392.224 83.8745 392.439 83.7469L393.929 82.8929ZM388.512 85.4C388.512 86.3172 388.24 87.2138 387.73 87.9763C387.219 88.7388 386.494 89.333 385.646 89.6837C384.797 90.0344 383.864 90.1259 382.963 89.9465C382.063 89.7671 381.236 89.325 380.587 88.676C379.938 88.027 379.497 87.2004 379.319 86.3007C379.14 85.401 379.233 84.4687 379.585 83.6217C379.937 82.7747 380.533 82.051 381.297 81.5424C382.061 81.0337 382.959 80.7628 383.877 80.764C384.486 80.764 385.09 80.884 385.652 81.117C386.215 81.3501 386.726 81.6917 387.157 82.1222C387.587 82.5528 387.929 83.0639 388.161 83.6264C388.394 84.1888 388.513 84.7915 388.512 85.4Z" fill="#EBEBEB"/>
<path d="M410.594 193.602L402.582 193.773L398.515 193.84C397.153 193.87 395.785 193.84 394.423 193.876H394.155V193.602L394.118 186.776V186.471H394.423L402.509 186.514C405.208 186.514 407.901 186.581 410.594 186.611H410.765V186.776C410.765 187.935 410.716 189.088 410.686 190.229L410.594 193.602ZM410.594 193.602L410.508 190.155C410.478 189.021 410.441 187.892 410.429 186.776L410.594 186.941C407.901 186.977 405.208 187.038 402.509 187.044L394.423 187.081L394.729 186.776V193.602L394.454 193.333C395.785 193.333 397.117 193.333 398.454 193.364L402.472 193.431L410.594 193.602Z" fill="#EBEBEB"/>
<path d="M401.574 202.209L393.562 202.38L389.489 202.447C388.134 202.477 386.766 202.447 385.404 202.483H385.135V202.209V195.383V195.078H385.441L393.526 195.121C396.219 195.121 398.918 195.188 401.611 195.218H401.782V195.383C401.782 196.542 401.733 197.695 401.703 198.836L401.574 202.209ZM401.574 202.209L401.489 198.762C401.458 197.622 401.422 196.499 401.41 195.383L401.574 195.548C398.881 195.584 396.182 195.645 393.489 195.651L385.404 195.688L385.709 195.383V202.209L385.434 201.941C386.766 201.941 388.097 201.941 389.434 201.971L393.446 202.038L401.574 202.209Z" fill="#EBEBEB"/>
<path d="M419.614 202.209L411.602 202.38L407.535 202.447C406.173 202.477 404.805 202.447 403.443 202.483H403.174V202.209L403.138 195.383V195.078H403.443L411.528 195.121C414.227 195.121 416.92 195.188 419.614 195.218H419.784V195.383C419.784 196.542 419.73 197.695 419.705 198.836L419.614 202.209ZM419.614 202.209L419.528 198.762C419.528 197.622 419.461 196.499 419.449 195.383L419.614 195.548C416.92 195.584 414.227 195.645 411.528 195.651L403.443 195.688L403.748 195.383V202.209L403.474 201.941C404.805 201.941 406.136 201.941 407.473 201.971L411.492 202.038L419.614 202.209Z" fill="#EBEBEB"/>
<path d="M180.018 118.474L172.007 118.645L167.939 118.718C166.578 118.718 165.21 118.718 163.848 118.718H163.579V118.444L163.543 111.63V111.325H163.848L171.933 111.362C174.632 111.362 177.325 111.429 180.018 111.459H180.189V111.63C180.189 112.789 180.134 113.942 180.104 115.083L180.018 118.474ZM180.018 118.474L179.933 115.028C179.933 113.893 179.866 112.771 179.854 111.648L180.018 111.819C177.325 111.85 174.632 111.917 171.933 111.917L163.848 111.953L164.153 111.648L164.123 118.474L163.848 118.206C165.179 118.206 166.51 118.206 167.848 118.236L171.866 118.31L180.018 118.474Z" fill="#EBEBEB"/>
<path d="M170.987 127.081L162.975 127.252L158.902 127.319C157.546 127.35 156.178 127.319 154.816 127.356H154.548V127.081L154.499 120.255V119.95H154.804L162.889 119.993C165.582 119.993 168.281 120.06 170.974 120.091H171.145V120.255C171.145 121.414 171.097 122.567 171.066 123.708L170.987 127.081ZM170.987 127.081L170.901 123.635C170.871 122.5 170.834 121.378 170.822 120.255L170.987 120.426C168.294 120.457 165.594 120.524 162.901 120.524L154.816 120.56L155.122 120.255V127.081L154.847 126.813C156.178 126.813 157.509 126.813 158.847 126.843L162.865 126.917L170.987 127.081Z" fill="#EBEBEB"/>
<path d="M63.5765 193.315L55.5707 193.486L51.5037 193.559C50.148 193.559 48.7801 193.559 47.4183 193.59H47.1435V193.315L47.113 186.489V186.184H47.4183L55.5035 186.221C58.1966 186.221 60.8957 186.288 63.5888 186.318H63.7536V186.483C63.7536 187.642 63.7048 188.795 63.6743 189.936L63.5765 193.315ZM63.5765 193.315L63.4911 189.869C63.4911 188.734 63.4178 187.612 63.4117 186.489L63.5765 186.66C60.8835 186.691 58.1844 186.758 55.4913 186.758L47.4061 186.794L47.7114 186.489L47.6748 193.315L47.4061 193.047C48.7373 193.047 50.0686 193.047 51.3999 193.047L55.418 193.12L63.5765 193.315Z" fill="#EBEBEB"/>
<path d="M54.5569 201.91L46.5389 202.081L42.4719 202.148C41.1162 202.148 39.7483 202.148 38.3865 202.185H38.1117V201.91V195.084V194.779H38.4231L46.5084 194.816C49.2014 194.816 51.8944 194.883 54.5936 194.913H54.7585V195.078C54.7585 196.237 54.7035 197.39 54.6791 198.531L54.5569 201.91ZM54.5569 201.91L54.4715 198.464C54.4715 197.329 54.3982 196.207 54.386 195.084L54.5569 195.255C51.8578 195.285 49.1648 195.353 46.4717 195.353L38.3865 195.389L38.6918 195.084L38.6552 201.91L38.3865 201.642C39.7177 201.642 41.0429 201.642 42.3803 201.672L46.3984 201.745L54.5569 201.91Z" fill="#EBEBEB"/>
<path d="M189.038 127.081L181.026 127.252L176.959 127.319C175.597 127.35 174.235 127.319 172.868 127.356H172.599V127.081L172.562 120.255V119.95H172.868L180.953 119.993C183.652 119.993 186.345 120.06 189.038 120.091H189.209V120.255C189.209 121.414 189.154 122.567 189.13 123.708L189.038 127.081ZM189.038 127.081L188.953 123.635C188.953 122.5 188.885 121.378 188.873 120.255L189.038 120.426C186.345 120.457 183.652 120.524 180.953 120.524L172.868 120.56L173.173 120.255L173.142 127.081L172.868 126.813C174.205 126.813 175.53 126.813 176.867 126.843L180.886 126.917L189.038 127.081Z" fill="#EBEBEB"/>
<path d="M374.461 107.653L366.449 107.824L362.382 107.891C361.02 107.891 359.652 107.891 358.29 107.927H358.022V107.653L357.985 100.827V100.522H358.29L366.376 100.565C369.069 100.565 371.768 100.632 374.461 100.662H374.632V100.827C374.632 101.986 374.583 103.139 374.552 104.28L374.461 107.653ZM374.461 107.653L374.375 104.206C374.375 103.072 374.308 101.943 374.296 100.827L374.461 100.992C371.768 101.028 369.069 101.089 366.376 101.095L358.29 101.132L358.596 100.827L358.565 107.653L358.29 107.384C359.622 107.384 360.953 107.384 362.29 107.415L366.308 107.482L374.461 107.653Z" fill="#EBEBEB"/>
<path d="M409.66 46.0794L401.648 46.2502L397.575 46.3173C396.219 46.3173 394.851 46.3173 393.489 46.3173H393.22V46.0428V39.2169V38.9119H393.526L401.611 38.9485C404.304 38.9485 407.003 39.0156 409.696 39.0461H409.867V39.2108C409.867 40.3698 409.818 41.5166 409.788 42.6573L409.66 46.0794ZM409.66 46.0794L409.574 42.6268C409.544 41.4922 409.507 40.3698 409.495 39.2535L409.66 39.4182C406.967 39.4182 404.267 39.5158 401.574 39.5158L393.489 39.5585L393.794 39.2535L393.764 46.0794L393.489 45.8049C394.82 45.8049 396.152 45.8049 397.489 45.8415L401.501 45.9086L409.66 46.0794Z" fill="#EBEBEB"/>
<path d="M418.679 54.6865L410.667 54.8573L406.6 54.9244C405.238 54.9244 403.87 54.9244 402.509 54.9244H402.24V54.6499L402.203 47.824V47.58H402.509L410.594 47.6166C413.293 47.6166 415.986 47.6837 418.679 47.7142H418.85V47.8789C418.85 49.0379 418.795 50.1847 418.765 51.3254L418.679 54.6865ZM418.679 54.6865L418.594 51.24C418.594 50.1054 418.527 48.983 418.514 47.8667L418.679 48.0314C415.986 48.0314 413.293 48.129 410.594 48.129L402.509 48.19L402.814 47.885V54.7109L402.539 54.4364C403.87 54.4364 405.202 54.4364 406.539 54.473L410.557 54.5401L418.679 54.6865Z" fill="#EBEBEB"/>
<path d="M54.5569 46.0855L46.5389 46.2563L42.4719 46.3234C41.1162 46.3234 39.7483 46.3234 38.3865 46.3234H38.1117V46.0489V39.223V38.918H38.4231L46.5084 38.9546C49.2014 38.9546 51.8944 39.0217 54.5936 39.0583H54.7585V39.223C54.7585 40.382 54.7035 41.5349 54.6791 42.6695L54.5569 46.0855ZM54.5569 46.0855L54.4715 42.639C54.4715 41.4983 54.3982 40.3759 54.386 39.2596L54.5569 39.4243C51.8578 39.4548 49.1648 39.5219 46.4717 39.528L38.3865 39.5646L38.6918 39.2596L38.6552 46.0855L38.3865 45.811C39.7177 45.811 41.0429 45.811 42.3803 45.8476L46.3984 45.9147L54.5569 46.0855Z" fill="#EBEBEB"/>
<path d="M416.121 152.738C407.754 164.06 399.022 177.193 396.903 191.388C396.893 191.437 396.903 191.488 396.931 191.53C396.96 191.572 397.003 191.6 397.052 191.61C397.102 191.62 397.153 191.61 397.195 191.582C397.237 191.554 397.266 191.51 397.275 191.461C398.238 187.591 399.473 183.793 400.97 180.096C406.466 178.584 411.87 177.339 414.759 171.886C417.708 166.28 417.336 158.972 416.774 152.866C416.731 152.537 416.292 152.5 416.121 152.738Z" fill="#52AC6C"/>
<path d="M401.055 179.987C404.817 171.563 409.641 163.102 415.772 156.197C415.815 156.154 415.876 156.197 415.84 156.264C411.828 161.199 408.774 166.573 405.794 172.044C408.567 169.232 411.602 166.719 414.221 163.736C414.276 163.681 414.356 163.736 414.307 163.822C411.705 166.945 408.854 170.336 405.464 172.648C404.548 174.328 403.628 176.009 402.704 177.693C402.93 177.565 403.168 177.455 403.4 177.339C403.404 177.335 403.409 177.332 403.414 177.331C403.42 177.329 403.425 177.328 403.431 177.329C403.436 177.33 403.441 177.332 403.446 177.335C403.451 177.338 403.455 177.342 403.458 177.346C403.46 177.351 403.462 177.357 403.463 177.362C403.463 177.368 403.462 177.373 403.46 177.378C403.458 177.383 403.455 177.388 403.451 177.392C403.447 177.396 403.442 177.399 403.437 177.4C403.174 177.528 402.924 177.669 402.655 177.778C402.216 178.578 401.776 179.377 401.324 180.17C401.208 180.322 400.976 180.164 401.055 179.987Z" fill="#263238"/>
<path d="M403.852 177.046C406.103 175.794 408.251 174.366 410.276 172.776C410.331 172.734 410.411 172.776 410.356 172.856C408.393 174.55 406.241 176.014 403.944 177.217C403.921 177.229 403.895 177.232 403.87 177.225C403.845 177.217 403.825 177.2 403.813 177.178C403.8 177.155 403.798 177.128 403.805 177.104C403.813 177.079 403.83 177.059 403.852 177.046Z" fill="#263238"/>
<path d="M395.938 189.277C395.938 189.448 396.243 189.448 396.243 189.277C396.286 184.604 396.243 179.907 396.317 175.21C397.538 172.77 400.09 171.453 401.88 169.519C403.166 168.105 404.285 166.547 405.214 164.877C407.373 160.888 408.69 156.499 409.086 151.982C409.58 146.98 407.681 130.479 405.574 131.052C404.475 131.351 400.933 139.525 399.999 142.228C398.477 146.683 397.361 151.266 396.665 155.922C394.955 166.914 395.101 178.205 395.938 189.277Z" fill="#52AC6C"/>
<path d="M395.901 169.11C396.158 163.199 397.489 157.228 398.741 151.487C400.084 145.308 401.654 139.489 404.848 133.974C404.903 133.877 405.055 133.974 405.006 134.066C402.89 138.347 401.252 142.847 400.121 147.486C400.335 147.15 400.591 146.839 400.817 146.522C400.903 146.4 401.104 146.522 401.019 146.644C400.734 147.143 400.401 147.613 400.023 148.047H399.987C398.888 152.463 398.1 156.984 397.428 161.467C397.476 161.405 397.527 161.346 397.581 161.29C397.611 161.254 397.672 161.29 397.648 161.345L397.379 161.79C397.037 164.078 396.726 166.359 396.408 168.622C400.487 165.145 403.968 161.04 405.935 155.983C405.935 155.983 405.983 155.983 405.971 155.983C404.048 161.223 401.013 165.89 396.341 169.068C396.264 169.678 396.178 170.288 396.085 170.898C396.085 171.026 395.865 170.989 395.871 170.867C395.871 170.33 395.871 169.787 395.92 169.251C395.903 169.232 395.893 169.208 395.889 169.183C395.886 169.158 395.89 169.133 395.901 169.11Z" fill="#263238"/>
<path d="M397.825 160.54C400.939 155.898 403.852 151.39 406.13 146.248C406.13 146.193 406.252 146.248 406.234 146.29C404.31 151.396 401.617 156.563 397.978 160.662C397.904 160.747 397.758 160.637 397.825 160.54Z" fill="#263238"/>
<path d="M401.965 145.101C403.254 142.819 404.616 140.599 405.831 138.275C405.867 138.208 405.953 138.275 405.928 138.33C404.932 140.756 403.67 143.066 402.167 145.217C402.151 145.243 402.126 145.263 402.096 145.271C402.066 145.279 402.035 145.275 402.008 145.259C401.981 145.244 401.962 145.219 401.954 145.189C401.946 145.159 401.95 145.127 401.965 145.101Z" fill="#263238"/>
<path d="M401.458 146.095C401.49 146.095 401.49 146.132 401.458 146.132V146.095Z" fill="#263238"/>
<path d="M392.769 175.759C392.705 178.858 392.339 181.943 391.676 184.97C391.724 185.3 391.773 185.635 391.822 185.977C392.775 182.632 393.328 179.186 393.471 175.711C393.498 175.662 393.513 175.607 393.513 175.552C393.513 175.496 393.498 175.442 393.471 175.393C393.603 170.734 393.257 166.074 392.439 161.485C390.992 152.897 387.822 144.649 381.826 138.214C381.776 138.171 381.717 138.139 381.654 138.123C381.59 138.106 381.524 138.104 381.46 138.117C381.395 138.13 381.335 138.157 381.283 138.197C381.231 138.238 381.189 138.289 381.16 138.348C378.717 144.497 379.584 151.829 381.648 157.966C382.772 161.285 384.374 164.423 386.406 167.28C388.476 170.19 391.095 172.63 392.769 175.759Z" fill="#52AC6C"/>
<path d="M382.546 141.075C388.231 150.292 392.188 161.205 392.671 172.105C392.671 172.295 392.353 172.349 392.323 172.154C392.188 171.172 392.042 170.202 391.883 169.238C389.526 166.994 387.114 164.615 385.428 161.803C385.425 161.791 385.425 161.779 385.428 161.768C385.432 161.757 385.439 161.747 385.449 161.74C385.458 161.734 385.47 161.73 385.481 161.73C385.493 161.73 385.505 161.734 385.514 161.742C387.56 164.078 389.465 166.469 391.779 168.555C391.37 166.146 390.888 163.779 390.314 161.443L389.868 160.918C389.77 160.802 389.935 160.631 390.033 160.747L390.173 160.9C389.373 157.701 388.379 154.554 387.199 151.475C385.752 149.749 384.146 148.261 383.083 146.18C383.083 146.132 383.126 146.095 383.157 146.138C384.006 147.327 384.824 148.523 385.783 149.621C386.167 150.06 386.589 150.475 387.004 150.902C385.695 147.56 384.139 144.321 382.351 141.209C382.345 141.184 382.347 141.158 382.357 141.135C382.366 141.111 382.382 141.091 382.403 141.076C382.424 141.062 382.449 141.054 382.474 141.054C382.5 141.054 382.525 141.061 382.546 141.075Z" fill="#263238"/>
<path d="M383.694 152.445C385.526 154.916 387.627 157.27 389.337 159.826C389.386 159.899 389.276 159.973 389.215 159.918C387.022 157.862 385.166 155.038 383.572 152.518C383.499 152.439 383.639 152.372 383.694 152.445Z" fill="#263238"/>
<path d="M389.605 160.43L389.685 160.503C389.734 160.558 389.654 160.644 389.599 160.589L389.52 160.509C389.453 160.43 389.538 160.345 389.605 160.43Z" fill="#263238"/>
<path d="M373.643 158.795C374.094 163.535 376.592 169.196 379.639 172.825C380.985 174.416 382.649 175.709 384.525 176.619C386.631 177.656 388.842 178.858 391.016 179.712C392.037 182.353 392.792 185.089 393.269 187.88L393.477 187.16C392.079 175.155 384.317 164.895 374.357 158.307C374.279 158.263 374.189 158.242 374.099 158.246C374.009 158.249 373.922 158.278 373.848 158.329C373.773 158.38 373.715 158.451 373.679 158.533C373.642 158.615 373.63 158.706 373.643 158.795Z" fill="#52AC6C"/>
<path d="M377.074 162.339C377.007 162.278 377.074 162.15 377.178 162.211C382.644 166.268 387.001 171.631 389.85 177.809C389.923 177.974 389.697 178.12 389.605 177.955C389.141 177.142 388.669 176.353 388.189 175.589C385.923 175.162 383.767 173.563 382.082 172.051C382.033 172.008 382.082 171.941 382.149 171.983C383.016 172.774 383.981 173.45 385.019 173.996C385.96 174.425 386.922 174.806 387.902 175.137C387.065 173.807 386.186 172.526 385.27 171.282C382.818 170.35 380.519 169.059 378.448 167.451C378.381 167.408 378.448 167.299 378.51 167.341C380.562 168.583 382.68 169.713 384.854 170.727C383.466 168.904 381.972 167.164 380.378 165.517C379.603 165.109 378.821 164.7 378.076 164.261C378.061 164.254 378.048 164.242 378.042 164.227C378.036 164.211 378.036 164.194 378.042 164.178C378.049 164.163 378.061 164.151 378.077 164.145C378.092 164.138 378.109 164.138 378.125 164.145C378.746 164.365 379.338 164.658 379.89 165.017C378.992 164.09 378.064 163.212 377.074 162.339Z" fill="#263238"/>
<path d="M377.288 166.481C377.421 166.566 377.55 166.657 377.673 166.756C377.71 166.792 377.673 166.835 377.624 166.817C377.483 166.754 377.348 166.678 377.221 166.591C377.154 166.53 377.221 166.439 377.288 166.481Z" fill="#263238"/>
<path d="M409.025 213.89H381.771L383.969 189.094L384.451 183.628H406.344L406.826 189.094L409.025 213.89Z" fill="#455A64"/>
<path d="M406.826 189.094H383.969L384.451 183.628H406.344L406.826 189.094Z" fill="#263238"/>
<path d="M407.651 179.804H383.151V185.214H407.651V179.804Z" fill="#455A64"/>
<path d="M30.973 213.89L80.4798 213.738L129.987 213.689L229 213.585L328.014 213.689L377.52 213.738L427.027 213.89L377.52 214.037L328.014 214.092L229 214.195L129.987 214.092L80.4798 214.037L30.973 213.89Z" fill="#263238"/>
<path d="M229 279.758C336.87 279.758 424.316 271.259 424.316 260.775C424.316 250.291 336.87 241.792 229 241.792C121.13 241.792 33.6844 250.291 33.6844 260.775C33.6844 271.259 121.13 279.758 229 279.758Z" fill="#EBEBEB"/>
<path d="M366.376 40.9737H90.5985V225.249H366.376V40.9737Z" fill="#EBEBEB"/>
<path d="M364.373 43.2185H92.6015V222.998H364.373V43.2185Z" fill="#263238"/>
<path d="M402.295 239.065H54.6791V251.71H402.295V239.065Z" fill="#DBDBDB"/>
<path d="M54.6791 239.065L90.5985 225.249H366.376L402.295 239.065H54.6791Z" fill="#EBEBEB"/>
<path d="M93.8045 234.167L116.985 225.249H339.989L363.17 234.167H93.8045Z" fill="#263238"/>
<path d="M349.014 56.8825H107.96V209.346H349.014V56.8825Z" fill="white"/>
<path d="M349.014 56.8825H107.758V62.7507H349.014V56.8825Z" fill="#455A64"/>
<path d="M112.424 59.8105C112.425 60.0994 112.34 60.3821 112.18 60.6227C112.02 60.8634 111.793 61.0512 111.526 61.1623C111.259 61.2734 110.965 61.3028 110.681 61.2468C110.397 61.1907 110.137 61.0517 109.932 60.8475C109.728 60.6432 109.589 60.3829 109.533 60.0995C109.476 59.8161 109.506 59.5225 109.617 59.2558C109.728 58.9892 109.916 58.7616 110.157 58.6018C110.398 58.4421 110.681 58.3575 110.97 58.3587C111.355 58.3603 111.724 58.5138 111.996 58.7857C112.268 59.0576 112.422 59.4259 112.424 59.8105Z" fill="#C7C7C7"/>
<path d="M118.372 59.8105C118.373 60.0994 118.288 60.3821 118.128 60.6227C117.968 60.8634 117.74 61.0512 117.473 61.1623C117.207 61.2734 116.913 61.3028 116.629 61.2468C116.345 61.1907 116.085 61.0517 115.88 60.8475C115.676 60.6432 115.537 60.3829 115.48 60.0995C115.424 59.8161 115.454 59.5225 115.565 59.2558C115.676 58.9892 115.864 58.7616 116.105 58.6018C116.346 58.4421 116.629 58.3575 116.918 58.3587C117.303 58.3603 117.672 58.5138 117.944 58.7857C118.216 59.0576 118.37 59.4259 118.372 59.8105Z" fill="white"/>
<path d="M124.319 59.8105C124.321 60.0991 124.236 60.3816 124.076 60.6221C123.917 60.8627 123.689 61.0505 123.423 61.1618C123.156 61.2731 122.863 61.3028 122.579 61.2472C122.296 61.1917 122.035 61.0533 121.83 60.8497C121.625 60.646 121.486 60.3862 121.429 60.1033C121.372 59.8203 121.401 59.5269 121.511 59.2601C121.621 58.9934 121.808 58.7653 122.049 58.6048C122.289 58.4444 122.571 58.3587 122.86 58.3587C123.246 58.3587 123.616 58.5115 123.89 58.7836C124.163 59.0556 124.318 59.4249 124.319 59.8105Z" fill="#52AC6C"/>
<path d="M349.014 62.7446H344.734V209.34H349.014V62.7446Z" fill="#DBDBDB"/>
<path d="M346.859 113.57C346.565 113.57 346.284 113.453 346.077 113.246C345.87 113.039 345.753 112.759 345.753 112.466V64.7088C345.753 64.416 345.87 64.1352 346.077 63.9281C346.284 63.721 346.565 63.6047 346.859 63.6047C347.152 63.6047 347.433 63.721 347.64 63.9281C347.847 64.1352 347.964 64.416 347.964 64.7088V112.466C347.964 112.759 347.847 113.039 347.64 113.246C347.433 113.453 347.152 113.57 346.859 113.57Z" fill="#A6A6A6"/>
<path d="M277.572 153.787H180.385V168.5H277.572V153.787Z" fill="white"/>
<path d="M277.737 168.665H180.22V153.622H277.737V168.665ZM180.55 168.36H277.408V153.952H180.55V168.36Z" fill="#DBDBDB"/>
<path d="M188.965 157.77C189.154 158.318 189.283 158.884 189.349 159.46C189.422 160.018 189.459 160.581 189.459 161.144C189.458 161.706 189.424 162.269 189.355 162.827C189.286 163.401 189.155 163.965 188.965 164.511C188.774 163.965 188.643 163.401 188.574 162.827C188.506 162.269 188.471 161.706 188.47 161.144C188.47 160.581 188.507 160.018 188.58 159.46C188.646 158.884 188.775 158.318 188.965 157.77Z" fill="#37474F"/>
<path d="M192.36 161.144C191.814 161.332 191.249 161.461 190.675 161.528C190.115 161.598 189.553 161.635 188.989 161.638C188.426 161.638 187.863 161.601 187.304 161.528C186.73 161.461 186.164 161.332 185.618 161.144C186.164 160.953 186.729 160.822 187.304 160.753C188.423 160.615 189.555 160.615 190.675 160.753C191.249 160.822 191.814 160.953 192.36 161.144Z" fill="#37474F"/>
<path d="M191.352 158.759C191.097 159.277 190.788 159.768 190.43 160.223C190.086 160.669 189.712 161.093 189.313 161.491C188.915 161.889 188.492 162.262 188.049 162.608C187.593 162.965 187.099 163.272 186.577 163.523C186.83 163.003 187.139 162.512 187.499 162.059C187.844 161.614 188.217 161.192 188.617 160.796C189.012 160.394 189.437 160.02 189.887 159.68C190.339 159.319 190.831 159.01 191.352 158.759Z" fill="#37474F"/>
<path d="M191.352 163.523C190.831 163.274 190.339 162.967 189.887 162.608C189.44 162.263 189.015 161.89 188.617 161.491C188.215 161.095 187.842 160.671 187.499 160.223C187.139 159.77 186.83 159.279 186.577 158.759C187.099 159.009 187.593 159.316 188.049 159.674C188.492 160.02 188.912 160.395 189.307 160.796C189.705 161.194 190.078 161.615 190.424 162.059C190.783 162.514 191.094 163.004 191.352 163.523Z" fill="#37474F"/>
<path d="M202.131 157.77C202.322 158.318 202.453 158.884 202.521 159.46C202.66 160.578 202.66 161.709 202.521 162.827C202.455 163.401 202.324 163.966 202.131 164.511C201.942 163.965 201.813 163.401 201.746 162.827C201.672 162.269 201.637 161.707 201.642 161.144C201.64 160.581 201.675 160.018 201.746 159.46C201.815 158.885 201.944 158.319 202.131 157.77Z" fill="#37474F"/>
<path d="M205.489 161.144C204.943 161.332 204.378 161.461 203.804 161.528C203.249 161.602 202.69 161.642 202.131 161.65C201.567 161.65 201.004 161.613 200.445 161.54C199.871 161.473 199.306 161.345 198.76 161.156C199.306 160.965 199.871 160.834 200.445 160.766C201.567 160.627 202.701 160.627 203.822 160.766C204.39 160.832 204.949 160.959 205.489 161.144Z" fill="#37474F"/>
<path d="M204.5 158.759C204.249 159.278 203.942 159.769 203.584 160.223C202.893 161.116 202.091 161.918 201.196 162.608C200.743 162.965 200.251 163.272 199.731 163.523C199.982 163.003 200.289 162.512 200.647 162.059C200.993 161.615 201.366 161.194 201.764 160.796C202.16 160.394 202.584 160.02 203.034 159.68C203.488 159.32 203.979 159.011 204.5 158.759Z" fill="#37474F"/>
<path d="M204.5 163.523C203.98 163.272 203.488 162.965 203.034 162.608C202.14 161.918 201.338 161.116 200.647 160.223C200.289 159.769 199.982 159.278 199.731 158.759C200.251 159.009 200.743 159.316 201.196 159.674C201.645 160.018 202.069 160.393 202.466 160.796C202.864 161.194 203.238 161.615 203.584 162.059C203.941 162.513 204.248 163.004 204.5 163.523Z" fill="#37474F"/>
<path d="M215.266 157.77C215.456 158.318 215.585 158.884 215.651 159.46C215.724 160.018 215.761 160.581 215.761 161.144C215.76 161.706 215.725 162.269 215.657 162.827C215.588 163.401 215.457 163.965 215.266 164.511C215.075 163.965 214.944 163.401 214.875 162.827C214.733 161.709 214.733 160.578 214.875 159.46C214.941 158.884 215.072 158.317 215.266 157.77Z" fill="#37474F"/>
<path d="M218.619 161.144C218.072 161.332 217.507 161.461 216.933 161.528C216.374 161.598 215.811 161.635 215.248 161.638C214.684 161.638 214.121 161.601 213.562 161.528C212.988 161.461 212.423 161.332 211.877 161.144C212.423 160.953 212.988 160.822 213.562 160.753C214.682 160.615 215.814 160.615 216.933 160.753C217.507 160.822 218.073 160.953 218.619 161.144Z" fill="#37474F"/>
<path d="M217.654 158.759C217.399 159.277 217.09 159.768 216.732 160.223C216.387 160.669 216.014 161.093 215.614 161.491C215.216 161.889 214.794 162.262 214.35 162.608C213.894 162.965 213.401 163.272 212.878 163.523C213.131 163.003 213.441 162.512 213.801 162.059C214.145 161.614 214.518 161.192 214.918 160.796C215.313 160.395 215.735 160.022 216.182 159.68C216.638 159.32 217.131 159.011 217.654 158.759Z" fill="#37474F"/>
<path d="M217.654 163.523C217.131 163.272 216.638 162.965 216.182 162.608C215.738 162.262 215.316 161.889 214.918 161.491C214.517 161.095 214.143 160.671 213.801 160.223C213.441 159.77 213.131 159.279 212.878 158.759C213.401 159.009 213.894 159.316 214.35 159.674C214.795 160.02 215.218 160.395 215.614 160.796C216.012 161.194 216.385 161.615 216.732 162.059C217.088 162.514 217.397 163.005 217.654 163.523Z" fill="#37474F"/>
<path d="M228.389 157.77C228.581 158.318 228.712 158.884 228.78 159.46C228.919 160.578 228.919 161.709 228.78 162.827C228.714 163.401 228.583 163.966 228.389 164.511C228.201 163.965 228.072 163.401 228.005 162.827C227.931 162.269 227.896 161.707 227.901 161.144C227.899 160.581 227.934 160.018 228.005 159.46C228.074 158.885 228.203 158.319 228.389 157.77Z" fill="#37474F"/>
<path d="M231.791 161.144C231.244 161.332 230.679 161.461 230.105 161.528C229.536 161.603 228.963 161.644 228.389 161.65C227.826 161.65 227.263 161.613 226.704 161.54C226.13 161.473 225.565 161.345 225.018 161.156C225.564 160.965 226.13 160.834 226.704 160.766C227.825 160.627 228.959 160.627 230.081 160.766C230.663 160.829 231.236 160.956 231.791 161.144Z" fill="#37474F"/>
<path d="M230.832 158.759C230.581 159.278 230.274 159.769 229.916 160.223C229.225 161.116 228.423 161.918 227.528 162.608C227.075 162.965 226.583 163.272 226.063 163.523C226.314 163.003 226.621 162.512 226.979 162.059C227.325 161.615 227.698 161.194 228.096 160.796C228.492 160.394 228.916 160.02 229.366 159.68C229.82 159.32 230.311 159.011 230.832 158.759Z" fill="#37474F"/>
<path d="M230.832 163.523C230.312 163.272 229.82 162.965 229.366 162.608C228.472 161.918 227.67 161.116 226.979 160.223C226.621 159.769 226.314 159.278 226.063 158.759C226.583 159.009 227.075 159.316 227.528 159.674C227.977 160.018 228.401 160.393 228.798 160.796C229.196 161.194 229.57 161.615 229.916 162.059C230.273 162.513 230.58 163.004 230.832 163.523Z" fill="#37474F"/>
<path d="M241.567 157.77C241.757 158.318 241.886 158.884 241.952 159.46C242.099 160.578 242.099 161.71 241.952 162.827C241.888 163.401 241.759 163.966 241.567 164.511C241.377 163.965 241.246 163.401 241.177 162.827C241.106 162.269 241.071 161.707 241.073 161.144C241.074 160.581 241.109 160.019 241.177 159.46C241.245 158.884 241.376 158.318 241.567 157.77Z" fill="#37474F"/>
<path d="M244.938 161.144C244.392 161.332 243.827 161.461 243.253 161.528C242.694 161.598 242.131 161.635 241.567 161.638C241.004 161.638 240.441 161.601 239.882 161.528C239.306 161.46 238.739 161.332 238.19 161.144C238.739 160.954 239.306 160.823 239.882 160.753C241.001 160.615 242.134 160.615 243.253 160.753C243.827 160.822 244.392 160.953 244.938 161.144Z" fill="#37474F"/>
<path d="M243.949 158.759C243.698 159.278 243.391 159.769 243.033 160.223C242.688 160.669 242.315 161.093 241.916 161.491C241.517 161.889 241.095 162.262 240.651 162.608C240.196 162.965 239.702 163.272 239.18 163.523C239.433 163.003 239.742 162.512 240.102 162.059C240.795 161.171 241.595 160.372 242.484 159.68C242.938 159.322 243.429 159.013 243.949 158.759Z" fill="#37474F"/>
<path d="M243.949 163.523C243.429 163.271 242.938 162.964 242.484 162.608C242.04 162.262 241.618 161.889 241.219 161.491C240.817 161.096 240.443 160.672 240.102 160.223C239.742 159.77 239.433 159.279 239.18 158.759C239.702 159.009 240.196 159.316 240.651 159.674C241.097 160.02 241.519 160.395 241.916 160.796C242.314 161.194 242.687 161.615 243.033 162.059C243.39 162.513 243.697 163.004 243.949 163.523Z" fill="#37474F"/>
<path d="M254.715 157.77C254.907 158.318 255.038 158.884 255.106 159.46C255.244 160.578 255.244 161.709 255.106 162.827C255.037 163.401 254.906 163.965 254.715 164.511C254.526 163.965 254.397 163.401 254.33 162.827C254.257 162.269 254.221 161.707 254.221 161.144C254.224 160.581 254.26 160.019 254.33 159.46C254.397 158.884 254.526 158.318 254.715 157.77Z" fill="#37474F"/>
<path d="M258.092 161.144C257.546 161.332 256.981 161.461 256.407 161.528C255.845 161.598 255.281 161.634 254.715 161.638C254.152 161.638 253.589 161.601 253.03 161.528C252.456 161.461 251.89 161.332 251.344 161.144C251.89 160.953 252.455 160.822 253.03 160.753C253.589 160.682 254.152 160.648 254.715 160.65C255.281 160.648 255.846 160.683 256.407 160.753C256.981 160.822 257.546 160.953 258.092 161.144Z" fill="#37474F"/>
<path d="M257.091 158.759C256.838 159.279 256.528 159.77 256.169 160.223C255.827 160.672 255.454 161.096 255.051 161.491C254.653 161.889 254.231 162.262 253.787 162.608C253.333 162.965 252.842 163.272 252.321 163.523C252.572 163.003 252.88 162.512 253.237 162.059C253.584 161.615 253.957 161.194 254.355 160.796C254.75 160.394 255.175 160.02 255.625 159.68C256.079 159.32 256.57 159.011 257.091 158.759Z" fill="#37474F"/>
<path d="M257.091 163.523C256.57 163.272 256.079 162.965 255.625 162.608C254.731 161.918 253.928 161.116 253.237 160.223C252.88 159.769 252.572 159.278 252.321 158.759C252.842 159.009 253.333 159.316 253.787 159.674C254.232 160.02 254.655 160.395 255.051 160.796C255.452 161.191 255.826 161.612 256.169 162.059C256.527 162.513 256.836 163.003 257.091 163.523Z" fill="#37474F"/>
<path d="M241.177 141.447C236.895 144.022 231.908 145.176 226.929 144.745C221.95 144.313 217.236 142.318 213.463 139.045C209.689 135.772 207.051 131.389 205.925 126.525C204.799 121.662 205.244 116.567 207.196 111.971C209.148 107.376 212.507 103.516 216.791 100.945C221.074 98.3742 226.063 97.2245 231.041 97.6607C236.02 98.097 240.732 100.097 244.502 103.373C248.272 106.65 250.907 111.035 252.028 115.9C253.177 120.758 252.744 125.854 250.792 130.449C248.84 135.044 245.472 138.897 241.177 141.447Z" fill="#455A64"/>
<path d="M236.206 118.578C236.19 120 235.752 121.386 234.948 122.56C234.143 123.734 233.008 124.644 231.687 125.173C230.365 125.703 228.915 125.829 227.522 125.535C226.128 125.242 224.853 124.542 223.858 123.525C222.862 122.508 222.191 121.218 221.929 119.82C221.668 118.421 221.827 116.977 222.387 115.669C222.948 114.361 223.884 113.248 225.077 112.472C226.27 111.695 227.667 111.29 229.092 111.307C231 111.329 232.821 112.108 234.156 113.471C235.49 114.835 236.227 116.672 236.206 118.578Z" fill="white"/>
<path d="M241.213 138.47L241.183 141.441C237.415 143.702 233.092 144.871 228.697 144.817C224.302 144.763 220.009 143.488 216.298 141.136L216.335 138.177C216.374 134.882 217.721 131.737 220.082 129.434C222.442 127.131 225.621 125.859 228.921 125.898C232.22 125.937 235.368 127.283 237.674 129.641C239.979 131.999 241.252 135.174 241.213 138.47Z" fill="white"/>
<path d="M249.219 132.827C249.302 144.587 248.208 156.324 245.952 167.866C244.829 173.643 243.118 179.29 240.847 184.72C239.71 187.443 238.219 190.005 236.413 192.339C235.504 193.515 234.418 194.544 233.195 195.389C231.974 196.274 230.505 196.75 228.997 196.75C227.489 196.75 226.019 196.274 224.799 195.389C223.569 194.544 222.478 193.516 221.562 192.339C219.747 190.007 218.247 187.448 217.098 184.726C214.809 179.298 213.08 173.651 211.938 167.872C209.637 156.327 208.504 144.58 208.555 132.809C208.504 121.036 209.638 109.287 211.938 97.7403C213.08 91.9615 214.809 86.3142 217.098 80.886C218.248 78.1671 219.749 75.6099 221.562 73.2793C222.476 72.103 223.565 71.0743 224.792 70.2293C226.015 69.3452 227.485 68.8693 228.994 68.8693C230.503 68.8693 231.973 69.3452 233.195 70.2293C234.418 71.0751 235.504 72.1038 236.413 73.2793C238.221 75.6106 239.711 78.1704 240.847 80.8921C243.118 86.322 244.829 91.9694 245.952 97.7464C248.213 109.301 249.308 121.054 249.219 132.827ZM249.219 132.827C249.266 121.071 248.135 109.339 245.842 97.8074C244.702 92.0448 242.975 86.4137 240.688 81.0019C239.55 78.2981 238.061 75.7551 236.261 73.4379C235.359 72.2891 234.286 71.2852 233.079 70.4611C231.895 69.6007 230.468 69.1372 229.003 69.1372C227.538 69.1372 226.111 69.6007 224.927 70.4611C223.726 71.2879 222.659 72.2939 221.764 73.444C219.973 75.7635 218.493 78.3062 217.361 81.008C215.097 86.4245 213.393 92.0575 212.274 97.8196C210.017 109.347 208.923 121.07 209.007 132.815C208.923 144.56 210.018 156.284 212.274 167.811C213.392 173.571 215.096 179.202 217.361 184.616C218.49 187.32 219.971 189.863 221.764 192.18C222.66 193.331 223.727 194.339 224.927 195.169C226.111 196.03 227.538 196.493 229.003 196.493C230.468 196.493 231.895 196.03 233.079 195.169C234.286 194.343 235.359 193.337 236.261 192.187C238.064 189.873 239.552 187.332 240.688 184.629C242.974 179.217 244.701 173.586 245.842 167.823C248.133 156.3 249.265 144.576 249.219 132.827Z" fill="#52AC6C"/>
<path d="M239.113 115.333C249.35 121.141 258.979 127.958 267.857 135.682C272.301 139.533 276.342 143.825 279.917 148.492C281.709 150.845 283.183 153.423 284.302 156.16C284.86 157.533 285.204 158.983 285.322 160.46C285.446 161.956 285.13 163.455 284.412 164.773C283.629 166.057 282.49 167.087 281.133 167.738C279.793 168.378 278.364 168.81 276.895 169.019C273.966 169.424 270.997 169.443 268.064 169.074C262.212 168.343 256.45 167.016 250.868 165.115C239.711 161.326 228.961 156.434 218.777 150.511C208.551 144.665 198.936 137.811 190.076 130.052C185.64 126.172 181.612 121.851 178.052 117.157C176.266 114.803 174.798 112.225 173.686 109.489C173.129 108.112 172.787 106.657 172.672 105.176C172.519 103.677 172.844 102.168 173.601 100.864C174.357 99.5606 175.507 98.5292 176.886 97.9172C178.224 97.2785 179.654 96.8505 181.124 96.6484C184.05 96.2613 187.015 96.2613 189.942 96.6484C195.781 97.3969 201.528 98.7377 207.095 100.65C218.232 104.464 228.958 109.383 239.113 115.333ZM239.113 115.333C228.942 109.415 218.204 104.529 207.059 100.748C201.494 98.8546 195.75 97.5322 189.917 96.8009C187.005 96.4317 184.056 96.4502 181.148 96.8558C179.702 97.0608 178.296 97.4845 176.977 98.1124C175.641 98.7102 174.528 99.7147 173.798 100.982C173.067 102.25 172.757 103.716 172.91 105.17C173.029 106.624 173.368 108.052 173.918 109.403C175.031 112.113 176.497 114.665 178.278 116.992C181.839 121.66 185.868 125.952 190.302 129.802C199.167 137.516 208.782 144.325 219.003 150.127C229.146 156.072 239.86 160.987 250.984 164.798C256.532 166.709 262.261 168.048 268.083 168.793C270.989 169.18 273.933 169.18 276.84 168.793C278.284 168.6 279.69 168.189 281.01 167.573C282.35 166.981 283.467 165.98 284.201 164.714C284.935 163.448 285.248 161.983 285.096 160.528C284.984 159.072 284.648 157.642 284.1 156.288C282.996 153.571 281.538 151.012 279.765 148.675C276.215 143.993 272.197 139.684 267.771 135.816C258.926 128.051 249.326 121.188 239.113 115.333Z" fill="#52AC6C"/>
<path d="M218.887 115.333C229.043 109.384 239.769 104.466 250.905 100.65C256.479 98.7298 262.235 97.3829 268.083 96.6301C271.009 96.243 273.974 96.243 276.901 96.6301C278.369 96.8379 279.798 97.2657 281.139 97.8989C282.517 98.5108 283.667 99.5423 284.424 100.846C285.18 102.15 285.505 103.659 285.352 105.158C285.237 106.639 284.895 108.093 284.339 109.471C283.226 112.207 281.758 114.785 279.972 117.138C276.414 121.833 272.385 126.151 267.948 130.028C259.087 137.787 249.473 144.643 239.247 150.493C229.067 156.422 218.316 161.314 207.156 165.096C201.561 167.009 195.785 168.344 189.917 169.08C186.984 169.449 184.015 169.43 181.087 169.025C179.617 168.816 178.188 168.384 176.849 167.744C175.492 167.093 174.353 166.064 173.57 164.779C172.851 163.461 172.535 161.962 172.66 160.467C172.778 158.989 173.122 157.539 173.68 156.166C174.799 153.437 176.273 150.867 178.064 148.523C181.639 143.855 185.68 139.563 190.125 135.713C199.007 127.977 208.642 121.149 218.887 115.333ZM218.887 115.333C208.672 121.172 199.067 128.018 190.217 135.768C185.791 139.635 181.772 143.944 178.223 148.626C176.449 150.963 174.991 153.522 173.887 156.239C173.34 157.593 173.004 159.023 172.892 160.479C172.74 161.934 173.053 163.4 173.787 164.666C174.521 165.931 175.638 166.932 176.977 167.524C178.298 168.14 179.704 168.551 181.148 168.744C184.054 169.132 186.999 169.132 189.905 168.744C195.727 168 201.457 166.659 207.004 164.743C218.125 160.944 228.837 156.039 238.978 150.103C249.198 144.301 258.813 137.494 267.68 129.784C272.117 125.935 276.148 121.643 279.71 116.974C281.488 114.646 282.952 112.094 284.064 109.385C284.613 108.033 284.953 106.606 285.071 105.152C285.225 103.697 284.914 102.231 284.184 100.964C283.454 99.6963 282.341 98.6919 281.004 98.0941C279.687 97.4635 278.28 97.0396 276.833 96.8375C273.926 96.4319 270.977 96.4134 268.064 96.7826C262.229 97.5135 256.484 98.8359 250.917 100.729C239.778 104.515 229.048 109.407 218.887 115.333Z" fill="#52AC6C"/>
<path d="M268.736 111.02C268.736 111.02 262.935 153.025 253.39 162.474C241.94 173.85 233.629 172.16 229 178.004C224.377 172.148 216.066 173.813 204.604 162.467C195.059 153.031 189.264 111.02 189.264 111.02C214.399 99.9973 229 87.6387 229 87.6387C229.452 88.023 243.986 100.174 268.736 111.02Z" fill="#52AC6C"/>
<path opacity="0.1" d="M229 87.6448V178.004C224.377 172.148 216.066 173.813 204.604 162.467C195.059 153.031 189.264 111.02 189.264 111.02C214.399 99.9973 229 87.6387 229 87.6387V87.6448Z" fill="black"/>
<path d="M262.587 114.412C262.587 114.412 257.701 149.889 249.628 157.88C239.943 167.469 232.92 166.06 229.012 171.001C225.104 166.06 218.081 167.469 208.396 157.88C200.299 149.889 195.413 114.412 195.413 114.412C216.646 105.091 229 94.6476 229 94.6476C229 94.6476 241.335 105.091 262.587 114.412Z" fill="#52AC6C"/>
<path opacity="0.1" d="M262.587 114.412C262.587 114.412 257.701 149.889 249.628 157.88C239.955 167.463 232.933 166.066 229.024 170.989V94.6598C229.379 94.977 241.665 105.237 262.587 114.412Z" fill="black"/>
<path d="M232.145 130.022L235.253 144.759H222.057L225.165 130.022C223.948 129.264 223.01 128.131 222.495 126.794C221.979 125.457 221.914 123.989 222.308 122.611C222.702 121.234 223.535 120.022 224.68 119.159C225.825 118.297 227.221 117.83 228.655 117.83C230.089 117.83 231.484 118.297 232.63 119.159C233.775 120.022 234.608 121.234 235.002 122.611C235.396 123.989 235.331 125.457 234.815 126.794C234.3 128.131 233.362 129.264 232.145 130.022Z" fill="#263238"/>
<path d="M109.547 225.914C109.547 225.914 98.7326 247.355 98.7204 247.367C96.6319 251.46 94.8732 255.078 94.1404 257.036C94.1377 257.048 94.1377 257.06 94.1404 257.072C93.9155 257.51 93.7983 257.995 93.7984 258.488C93.7984 258.488 93.7984 258.518 93.7984 258.524C94.5984 259.97 126.823 277.605 128.155 277.843C129.486 278.081 130.267 274.311 129.565 272.627C128.863 270.944 119.538 258.683 119.538 258.683L130.145 237.15L109.547 225.914Z" fill="#D3766A"/>
<path d="M100.943 242.969C100.943 242.969 98.7326 247.355 98.7204 247.367C96.6319 251.46 94.8732 255.078 94.1404 257.036C94.1377 257.048 94.1377 257.06 94.1404 257.072C93.9707 257.529 93.8559 258.004 93.7984 258.488C93.7984 258.488 93.7984 258.518 93.7984 258.524C94.5984 259.97 126.823 277.605 128.155 277.843C129.486 278.081 130.267 274.311 129.565 272.627C128.863 270.944 119.538 258.683 119.538 258.683L121.852 254.242L100.943 242.969Z" fill="white"/>
<path d="M121.523 259.72C119.532 258.244 116.692 257.28 114.256 258.018C114.158 258.018 114.201 258.183 114.256 258.195C116.68 258.548 119.059 259.162 121.352 260.025C121.372 260.036 121.394 260.043 121.417 260.046C121.439 260.048 121.463 260.047 121.485 260.04C121.507 260.034 121.528 260.024 121.546 260.009C121.564 259.995 121.579 259.978 121.59 259.958C121.601 259.938 121.608 259.916 121.611 259.893C121.614 259.87 121.612 259.847 121.606 259.825C121.599 259.803 121.589 259.782 121.575 259.764C121.56 259.746 121.543 259.731 121.523 259.72Z" fill="#263238"/>
<path d="M122.646 261.44C120.656 259.97 117.81 259 115.379 259.738C115.282 259.768 115.324 259.903 115.379 259.915C117.803 260.27 120.182 260.883 122.475 261.745C122.495 261.756 122.517 261.763 122.54 261.766C122.563 261.769 122.586 261.767 122.608 261.761C122.63 261.754 122.651 261.744 122.669 261.73C122.687 261.715 122.702 261.698 122.713 261.678C122.725 261.658 122.732 261.636 122.735 261.613C122.737 261.59 122.735 261.567 122.729 261.545C122.723 261.523 122.712 261.502 122.698 261.484C122.684 261.466 122.666 261.451 122.646 261.44Z" fill="#263238"/>
<path d="M123.764 263.166C121.773 261.69 118.927 260.726 116.491 261.464C116.399 261.464 116.442 261.623 116.521 261.635C118.944 261.98 121.323 262.583 123.617 263.435C123.653 263.454 123.695 263.458 123.734 263.447C123.773 263.436 123.805 263.409 123.825 263.374C123.844 263.338 123.849 263.296 123.837 263.257C123.826 263.218 123.799 263.186 123.764 263.166Z" fill="#263238"/>
<path d="M128.148 277.843C126.817 277.605 94.5923 259.976 93.7923 258.524C93.4809 257.981 95.777 253.138 98.7265 247.367L98.8181 247.19L119.733 258.335L119.532 258.683C119.532 258.683 128.845 270.944 129.559 272.627C130.274 274.311 129.461 278.087 128.148 277.843Z" fill="#52AC6C"/>
<path d="M128.472 276.397C123.11 273.292 101.206 261.269 95.667 258.609C95.6243 258.609 95.606 258.609 95.667 258.64C100.913 261.836 122.921 273.676 128.442 276.489C128.539 276.543 128.582 276.464 128.472 276.397Z" fill="#263238"/>
<path d="M124.576 251.625C124.832 251.503 138.89 225.157 144.172 211.761C149.455 198.366 156.184 169.714 157.503 163.846C157.503 163.846 161.717 150.847 162.969 139.775H134.53C134.53 139.775 129.852 151.182 130.921 167.103C130.988 168.085 122.524 200.818 120.13 205.174C116.466 211.841 101.365 238.913 100.894 239.157L124.576 251.625Z" fill="#455A64"/>
<path d="M151.751 148.468C150.255 154.91 148.954 161.4 147.58 167.866C146.206 174.332 144.826 180.865 143.446 187.386C142.768 190.588 142.108 193.803 141.4 197C140.733 200.152 139.804 203.243 138.621 206.241C137.4 209.2 136.032 212.091 134.67 214.976C133.309 217.862 131.91 220.777 130.5 223.663C127.65 229.462 124.733 235.22 121.749 240.938C121.382 241.645 121.01 242.347 120.637 243.048C120.607 243.103 120.686 243.152 120.717 243.097C123.88 237.473 126.945 231.788 129.877 226.017C132.808 220.247 135.66 214.494 138.273 208.608C139.574 205.699 140.618 202.682 141.394 199.592C142.169 196.444 142.78 193.248 143.446 190.07L147.531 170.458C148.887 163.95 150.248 157.447 151.574 150.938C151.738 150.133 151.897 149.334 152.05 148.498C152.056 148.352 151.793 148.279 151.751 148.468Z" fill="#263238"/>
<path d="M104.424 235.606C105.035 235.844 105.694 236.216 106.311 236.509C106.928 236.802 107.691 237.205 108.387 237.54C109.731 238.187 111.068 238.852 112.399 239.535C115.074 240.895 117.73 242.323 120.338 243.805L122.488 245.025C123.251 245.464 123.99 245.946 124.771 246.355C124.832 246.355 124.771 246.458 124.735 246.428C123.397 245.714 121.981 245.116 120.619 244.451C119.257 243.787 117.944 243.128 116.619 242.451C113.944 241.078 111.288 239.645 108.68 238.138C107.96 237.723 107.233 237.327 106.519 236.918C106.134 236.698 105.755 236.473 105.377 236.247C105.024 236.062 104.682 235.858 104.351 235.637C104.29 235.655 104.338 235.582 104.424 235.606Z" fill="#263238"/>
<path d="M151.171 241.993C151.171 241.993 151.372 265.997 151.372 266.015C151.372 270.602 151.482 274.628 151.726 276.708C151.722 276.718 151.722 276.729 151.726 276.739C151.727 277.231 151.84 277.717 152.056 278.16C153.43 279.081 190.162 280.039 191.456 279.636C192.751 279.234 191.713 275.531 190.32 274.36C188.928 273.189 175.06 266.57 175.06 266.57L174.651 242.567L151.171 241.993Z" fill="#D3766A"/>
<path d="M151.329 261.08C151.329 261.08 151.372 265.991 151.372 266.009C151.372 270.596 151.482 274.622 151.726 276.702C151.723 276.712 151.723 276.723 151.726 276.733C151.78 277.22 151.891 277.699 152.056 278.16C153.43 279.081 190.162 280.039 191.456 279.636C192.751 279.234 191.713 275.531 190.32 274.36C188.928 273.189 175.06 266.57 175.06 266.57V261.562L151.329 261.08Z" fill="white"/>
<path d="M177.307 266.57C174.864 266.167 171.89 266.601 170.065 268.4C169.997 268.467 170.095 268.571 170.175 268.54C172.487 267.741 174.878 267.191 177.307 266.899C177.351 266.899 177.393 266.882 177.424 266.851C177.455 266.82 177.472 266.778 177.472 266.735C177.472 266.691 177.455 266.649 177.424 266.618C177.393 266.587 177.351 266.57 177.307 266.57Z" fill="#263238"/>
<path d="M179.09 267.595C176.648 267.192 173.674 267.631 171.848 269.425C171.774 269.492 171.848 269.59 171.952 269.565C174.265 268.762 176.658 268.212 179.09 267.924C179.134 267.924 179.176 267.907 179.207 267.876C179.238 267.845 179.255 267.803 179.255 267.76C179.255 267.716 179.238 267.674 179.207 267.643C179.176 267.612 179.134 267.595 179.09 267.595Z" fill="#263238"/>
<path d="M180.873 268.62C178.431 268.217 175.457 268.65 173.631 270.45C173.558 270.517 173.631 270.62 173.735 270.59C176.047 269.791 178.438 269.241 180.867 268.949C180.911 268.95 180.953 268.933 180.985 268.903C181.016 268.873 181.034 268.831 181.035 268.787C181.036 268.744 181.019 268.701 180.989 268.67C180.959 268.639 180.917 268.62 180.873 268.62Z" fill="#263238"/>
<path d="M191.499 279.667C190.204 280.063 153.473 279.112 152.099 278.184C151.574 277.843 151.396 272.487 151.372 265.984V265.783L175.072 266.131V266.533C175.072 266.533 188.971 273.176 190.375 274.354C191.78 275.531 192.794 279.27 191.499 279.667Z" fill="#52AC6C"/>
<path d="M191.139 278.233C184.953 277.916 159.964 277.239 153.821 277.404C153.772 277.404 153.772 277.44 153.821 277.44C159.927 277.886 184.965 278.361 191.139 278.331C191.249 278.331 191.249 278.239 191.139 278.233Z" fill="#263238"/>
<path d="M146.823 165.188C146.823 165.188 150.871 204.893 150.938 205.826C150.938 206.198 150.395 258.243 150.395 258.243L175.536 258.957C175.536 258.957 175.75 210.279 175.341 204.667C175.292 204.014 172.855 162.62 165.057 139.769H135.293C135.293 139.769 135.556 153.189 141.669 162.9C143.428 163.566 145.149 164.33 146.823 165.188Z" fill="#455A64"/>
<path d="M168.898 210.273C168.782 202.953 168.477 195.597 167.903 188.277C167.329 180.957 166.431 173.82 165.246 166.646C164.112 159.423 162.534 152.276 160.52 145.247C160.257 144.369 159.995 143.49 159.726 142.612C159.715 142.592 159.698 142.577 159.677 142.568C159.657 142.56 159.634 142.559 159.612 142.565C159.591 142.571 159.572 142.585 159.559 142.604C159.547 142.622 159.541 142.644 159.543 142.667C161.436 149.706 163.072 156.801 164.312 163.98C165.552 171.16 166.37 178.474 166.987 185.763C167.604 193.053 167.958 200.403 168.141 207.723C168.324 215.043 168.342 222.363 168.269 229.683C168.196 237.003 167.915 239.858 167.891 247.178C167.891 248.099 167.891 249.008 167.86 249.929C167.86 249.996 167.958 249.99 167.958 249.929C168.092 246.269 168.312 242.609 168.434 238.907C168.556 235.204 168.666 236.009 168.752 232.325C168.923 225.011 169.014 217.642 168.898 210.273Z" fill="#263238"/>
<path d="M150.798 167.012C149.332 166.213 147.836 165.493 146.304 164.84C144.771 164.188 143.195 163.59 141.669 162.907C141.608 162.907 141.559 162.968 141.62 162.998C143.122 163.773 144.594 164.602 146.114 165.334C147.609 166.05 149.151 166.662 150.731 167.164C150.835 167.207 150.884 167.061 150.798 167.012Z" fill="#263238"/>
<path d="M148.948 182.841C148.575 179.096 148.172 175.357 147.726 171.623C147.592 170.568 147.458 169.513 147.317 168.464C147.215 167.448 147.048 166.439 146.817 165.444C146.817 165.389 146.725 165.408 146.725 165.444C146.73 166.403 146.793 167.36 146.914 168.311C147.006 169.214 147.085 170.141 147.177 171.02C147.354 172.85 147.519 174.734 147.708 176.589C148.087 180.31 148.416 184.031 148.795 187.746C149.015 189.862 149.21 191.973 149.516 194.078C149.516 194.11 149.529 194.141 149.551 194.164C149.574 194.187 149.605 194.2 149.638 194.2C149.67 194.2 149.701 194.187 149.724 194.164C149.747 194.141 149.76 194.11 149.76 194.078C149.674 190.32 149.314 186.575 148.948 182.841Z" fill="#263238"/>
<path d="M152.105 253.15C152.777 253.089 153.509 253.15 154.193 253.15C154.969 253.15 155.744 253.181 156.52 253.181C158.01 253.181 159.502 253.197 160.996 253.229C164.001 253.296 167.011 253.431 170.01 253.644L172.489 253.827C173.368 253.894 174.248 254.004 175.127 254.035C175.194 254.035 175.188 254.12 175.127 254.114C173.613 254.053 172.074 254.114 170.565 254.114C169.057 254.114 167.579 254.077 166.089 254.041C163.085 253.967 160.068 253.827 157.076 253.601C156.245 253.534 155.421 253.492 154.596 253.437L153.277 253.327C152.88 253.296 152.49 253.327 152.099 253.248C152.056 253.217 152.056 253.15 152.105 253.15Z" fill="#263238"/>
<path d="M153.461 109.995C154.719 114.265 161.399 127.142 168.214 128.905C174.321 130.473 190.809 116.498 195.328 109.507C196.922 107.067 184.556 104.017 181.997 104.713C179.799 105.323 170.199 115.083 169.35 114.771C167.915 114.222 164.569 111.276 159.128 106.683C154.01 102.352 152.575 106.988 153.461 109.995Z" fill="#D3766A"/>
<path d="M179.035 105.933L194.259 112.331C194.259 112.331 176.922 131.29 168.043 129.454C165.998 129.033 156.996 122.085 153.326 111.24C152.19 107.878 152.398 100.87 160.007 107.092C167.616 113.314 169.197 114.235 169.497 114.204C169.796 114.174 179.035 105.933 179.035 105.933Z" fill="#A6A6A6"/>
<path d="M191.139 114.576C190.015 113.918 188.794 113.405 187.615 112.862C186.437 112.319 185.288 111.795 184.122 111.27C181.759 110.215 179.408 109.092 176.983 108.22C176.973 108.217 176.961 108.218 176.951 108.223C176.941 108.228 176.932 108.236 176.927 108.246C176.922 108.256 176.921 108.267 176.923 108.278C176.926 108.289 176.932 108.299 176.941 108.306C179.206 109.599 181.612 110.66 183.988 111.74C185.172 112.277 186.367 112.801 187.572 113.314C188.724 113.839 189.905 114.3 191.108 114.692C191.139 114.68 191.175 114.601 191.139 114.576Z" fill="#263238"/>
<path d="M229.171 121.14L229.385 120.274C229.571 119.503 229.443 118.69 229.03 118.013C228.616 117.336 227.951 116.85 227.18 116.663L149.32 97.7525L147.696 104.432L225.556 123.342C225.938 123.435 226.335 123.451 226.723 123.391C227.112 123.33 227.485 123.194 227.82 122.99C228.156 122.785 228.448 122.516 228.68 122.199C228.912 121.882 229.079 121.522 229.171 121.14Z" fill="#52AC6C"/>
<path opacity="0.2" d="M229.171 121.14L229.385 120.274C229.571 119.503 229.443 118.69 229.03 118.013C228.616 117.336 227.951 116.85 227.18 116.663L149.32 97.7525L147.696 104.432L225.556 123.342C225.938 123.435 226.335 123.451 226.723 123.391C227.112 123.33 227.485 123.194 227.82 122.99C228.156 122.785 228.448 122.516 228.68 122.199C228.912 121.882 229.079 121.522 229.171 121.14Z" fill="black"/>
<path opacity="0.1" d="M149.314 97.7654L147.69 104.446L157.12 106.733L158.744 100.053L149.314 97.7654Z" fill="black"/>
<path d="M128.203 118.511C130.196 118.995 132.264 119.082 134.29 118.767C136.317 118.453 138.261 117.742 140.012 116.677C141.763 115.611 143.287 114.211 144.497 112.557C145.706 110.903 146.577 109.027 147.061 107.037L149.943 95.1905C150.472 93.1849 150.595 91.0941 150.305 89.0404C150.015 86.9867 149.318 85.0114 148.254 83.2301C147.191 81.4488 145.783 79.8972 144.112 78.6661C142.441 77.435 140.541 76.5491 138.523 76.0604C136.505 75.5716 134.41 75.4897 132.36 75.8194C130.31 76.1492 128.347 76.884 126.585 77.9809C124.823 79.0778 123.297 80.5147 122.098 82.2076C120.898 83.9004 120.049 85.8153 119.599 87.84L116.717 99.6923C115.744 103.709 116.407 107.948 118.561 111.477C120.715 115.005 124.183 117.535 128.203 118.511ZM129.345 113.82C123.849 112.49 120.326 107.592 121.474 102.877C122.335 99.3507 125.559 96.929 129.412 96.4898C126.176 94.3243 124.417 90.6948 125.278 87.169C126.42 82.4598 131.8 79.7087 137.296 81.0385C142.792 82.3683 146.31 87.2849 145.168 92.0185C144.313 95.5443 141.088 97.9599 137.229 98.4052C140.472 100.571 142.224 104.2 141.369 107.726C140.221 112.417 134.835 115.156 129.345 113.82Z" fill="#52AC6C"/>
<path opacity="0.2" d="M128.203 118.511C130.196 118.995 132.264 119.082 134.29 118.767C136.317 118.453 138.261 117.742 140.012 116.677C141.763 115.611 143.287 114.211 144.497 112.557C145.706 110.903 146.577 109.027 147.061 107.037L149.943 95.1905C150.472 93.1849 150.595 91.0941 150.305 89.0404C150.015 86.9867 149.318 85.0114 148.254 83.2301C147.191 81.4488 145.783 79.8972 144.112 78.6661C142.441 77.435 140.541 76.5491 138.523 76.0604C136.505 75.5716 134.41 75.4897 132.36 75.8194C130.31 76.1492 128.347 76.884 126.585 77.9809C124.823 79.0778 123.297 80.5147 122.098 82.2076C120.898 83.9004 120.049 85.8153 119.599 87.84L116.717 99.6923C115.744 103.709 116.407 107.948 118.561 111.477C120.715 115.005 124.183 117.535 128.203 118.511ZM129.345 113.82C123.849 112.49 120.326 107.592 121.474 102.877C122.335 99.3507 125.559 96.929 129.412 96.4898C126.176 94.3243 124.417 90.6948 125.278 87.169C126.42 82.4598 131.8 79.7087 137.296 81.0385C142.792 82.3683 146.31 87.2849 145.168 92.0185C144.313 95.5443 141.088 97.9599 137.229 98.4052C140.472 100.571 142.224 104.2 141.369 107.726C140.221 112.417 134.835 115.156 129.345 113.82Z" fill="black"/>
<path d="M150.072 108.119L153.111 95.6172C153.291 94.8774 152.836 94.1319 152.096 93.9523L151.692 93.8544C150.951 93.6747 150.205 94.1288 150.025 94.8687L146.986 107.37C146.806 108.11 147.261 108.856 148.001 109.035L148.405 109.133C149.146 109.313 149.892 108.859 150.072 108.119Z" fill="#52AC6C"/>
<path opacity="0.2" d="M150.072 108.119L153.111 95.6172C153.291 94.8774 152.836 94.1319 152.096 93.9523L151.692 93.8544C150.951 93.6747 150.205 94.1288 150.025 94.8687L146.986 107.37C146.806 108.11 147.261 108.856 148.001 109.035L148.405 109.133C149.146 109.313 149.892 108.859 150.072 108.119Z" fill="black"/>
<path d="M153.158 108.861L156.197 96.3597C156.377 95.6198 155.922 94.8744 155.181 94.6947L154.778 94.5968C154.037 94.4171 153.291 94.8713 153.111 95.6111L150.072 108.113C149.892 108.853 150.346 109.598 151.087 109.778L151.491 109.876C152.231 110.055 152.978 109.601 153.158 108.861Z" fill="#52AC6C"/>
<path opacity="0.2" d="M153.158 108.861L156.197 96.3597C156.377 95.6198 155.922 94.8744 155.181 94.6947L154.778 94.5968C154.037 94.4171 153.291 94.8713 153.111 95.6111L150.072 108.113C149.892 108.853 150.346 109.598 151.087 109.778L151.491 109.876C152.231 110.055 152.978 109.601 153.158 108.861Z" fill="black"/>
<path d="M205.917 121.481L208.243 122.049L206.601 128.795L208.585 129.277L209.446 125.758L211.761 126.325L210.912 129.838L212.671 130.265L214.02 124.708L216.347 125.27L214.997 130.833L217.495 131.437L219.303 124.007L221.629 124.574L219.822 132.004L222.179 132.577L224.493 123.08L203.712 118.041L201.404 127.533L204.274 128.234L205.917 121.481Z" fill="#52AC6C"/>
<path opacity="0.2" d="M205.917 121.481L208.243 122.049L206.601 128.795L208.585 129.277L209.446 125.758L211.761 126.325L210.912 129.838L212.671 130.265L214.02 124.708L216.347 125.27L214.997 130.833L217.495 131.437L219.303 124.007L221.629 124.574L219.822 132.004L222.179 132.577L224.493 123.08L203.712 118.041L201.404 127.533L204.274 128.234L205.917 121.481Z" fill="black"/>
<path d="M176.336 102.291C178.736 101.565 181.924 99.308 183.786 99.3629C184.247 99.3593 184.696 99.5039 185.068 99.7752C185.439 100.047 185.714 100.43 185.85 100.87C185.85 100.87 187.035 99.186 188.72 99.5154C189.581 99.6801 190.076 101.211 190.076 101.211C190.365 100.843 190.75 100.562 191.188 100.399C191.627 100.235 192.102 100.195 192.562 100.284C193.74 100.595 194.058 102.083 194.058 102.083C194.058 102.083 195.615 101.272 196.714 101.974C198.943 103.383 197.392 113.716 193.343 114.735C191.456 115.217 191.969 112.71 191.969 112.71C191.969 112.71 190.357 116.132 188.22 115.863C186.082 115.595 186.95 112.386 186.95 112.386C186.95 112.386 185.356 115.686 183.163 115.186C180.971 114.686 182.302 111.606 182.302 111.606C182.302 111.606 180.397 113.667 178.809 112.905C176.183 111.642 180.299 107.811 180.104 105.463L176.544 103.633L176.336 102.291Z" fill="#D3766A"/>
<path d="M179.902 100.711C177.57 101.199 175.249 98.0575 172.947 98.2039C169.839 98.4052 172.281 102.236 176.544 103.645L180.049 104.158L179.902 100.711Z" fill="#D3766A"/>
<path d="M194.143 102.309C194.143 102.273 194.192 102.273 194.198 102.309C194.541 105.969 193.759 109.646 191.957 112.85C191.902 112.954 191.713 112.899 191.755 112.777C193.055 109.422 193.859 105.896 194.143 102.309Z" fill="#263238"/>
<path d="M190.107 101.169C190.107 101.126 190.174 101.132 190.18 101.169C190.517 105.208 189.398 109.234 187.023 112.521C186.937 112.63 186.748 112.643 186.833 112.521C188.342 110.209 189.917 104.536 190.107 101.169Z" fill="#263238"/>
<path d="M182.046 111.789C184.336 108.556 185.356 104.914 185.869 101.022C185.869 100.967 185.948 100.986 185.954 101.022C186.223 102.992 185.637 105.439 185.02 107.305C184.479 109.048 183.492 110.618 182.156 111.862C182.101 111.917 181.979 111.856 182.046 111.789Z" fill="#263238"/>
<path d="M158.407 112.173C156.795 112.1 153.741 108.812 152.673 106.171C152.893 104.786 153.182 103.414 153.54 102.059C153.821 100.742 154.102 99.2714 154.261 97.9111C154.261 97.6305 155.183 98.2527 155.183 98.2527L156.899 98.8627L162.572 100.961C161.886 102.607 161.402 104.329 161.131 106.091C161.115 106.28 161.115 106.47 161.131 106.659C161.131 106.659 161.131 106.713 161.131 106.75C161.179 107.86 160.923 112.295 158.407 112.173Z" fill="#D3766A"/>
<path d="M161.124 106.683C161.124 106.683 161.124 106.738 161.124 106.774C160.828 106.779 160.532 106.761 160.239 106.72C154.493 105.92 154.627 98.5211 154.627 98.5211L156.892 98.8871L162.566 100.986C161.88 102.631 161.396 104.354 161.124 106.116C161.109 106.304 161.109 106.494 161.124 106.683Z" fill="#263238"/>
<path d="M155.457 86.3455C153.833 89.0905 153.326 98.0331 154.975 100.455C157.369 103.962 162.303 105.432 165.558 102.328C168.703 99.3202 169.155 87.657 167.213 85.3512C164.361 81.9535 157.857 82.289 155.457 86.3455Z" fill="#D3766A"/>
<path d="M163.109 93.4337C163.109 93.4337 163.066 93.4337 163.066 93.4825C163.066 94.0925 162.981 94.7818 162.456 94.9709C162.456 94.9709 162.456 95.0075 162.456 95.0014C163.103 94.9221 163.219 94.001 163.109 93.4337Z" fill="#263238"/>
<path d="M162.584 92.7932C161.613 92.7017 161.503 94.6232 162.401 94.7269C163.298 94.8306 163.396 92.8664 162.584 92.7932Z" fill="#263238"/>
<path d="M166.327 93.5069C166.327 93.5069 166.37 93.5374 166.37 93.5618C166.315 94.1718 166.37 94.8611 166.889 95.0929C166.889 95.0929 166.889 95.1295 166.889 95.1234C166.223 94.9953 166.181 94.0681 166.327 93.5069Z" fill="#263238"/>
<path d="M166.901 92.9091C167.872 92.9091 167.842 94.8367 166.938 94.855C166.034 94.8733 166.101 92.9274 166.901 92.9091Z" fill="#263238"/>
<path d="M161.863 91.8599C162.123 91.7976 162.38 91.7223 162.633 91.6342C162.915 91.5951 163.177 91.4643 163.378 91.2621C163.428 91.1862 163.452 91.0954 163.444 91.0045C163.436 90.9137 163.398 90.8281 163.335 90.7619C163.195 90.6462 163.027 90.57 162.848 90.541C162.668 90.5121 162.484 90.5315 162.315 90.5972C161.948 90.6791 161.625 90.8971 161.411 91.2072C161.37 91.2792 161.35 91.3615 161.353 91.4445C161.357 91.5276 161.383 91.6079 161.431 91.6763C161.478 91.7446 161.544 91.7982 161.62 91.8307C161.697 91.8632 161.781 91.8733 161.863 91.8599Z" fill="#263238"/>
<path d="M167.622 92.1893C167.364 92.1209 167.109 92.0394 166.859 91.9453C166.578 91.8945 166.322 91.7556 166.126 91.5488C166.079 91.4709 166.059 91.3798 166.069 91.2894C166.079 91.1991 166.118 91.1144 166.181 91.0486C166.324 90.9363 166.495 90.8645 166.675 90.8409C166.856 90.8173 167.039 90.8427 167.207 90.9144C167.567 91.0021 167.882 91.2193 168.092 91.5244C168.139 91.598 168.164 91.684 168.162 91.7714C168.16 91.8588 168.132 91.9437 168.081 92.0151C168.031 92.0865 167.96 92.1412 167.878 92.1723C167.796 92.2033 167.707 92.2092 167.622 92.1893Z" fill="#263238"/>
<path d="M161.876 98.9847C162.016 99.1372 162.144 99.3385 162.364 99.369C162.59 99.3786 162.815 99.3391 163.024 99.2531C163.024 99.2531 163.06 99.2531 163.024 99.2531C162.931 99.3679 162.808 99.4553 162.67 99.5058C162.531 99.5564 162.381 99.5681 162.236 99.5398C162.114 99.5006 162.007 99.4264 161.928 99.3265C161.849 99.2267 161.801 99.1056 161.79 98.9786C161.827 98.9725 161.857 98.9664 161.876 98.9847Z" fill="#263238"/>
<path d="M162.614 97.2218C162.755 97.4682 162.944 97.6832 163.171 97.8532C163.398 98.0232 163.657 98.1447 163.934 98.21C164.173 98.2713 164.42 98.2959 164.666 98.2832C164.715 98.2891 164.764 98.2891 164.813 98.2832H164.941C164.974 98.2804 165.005 98.266 165.029 98.2426C165.052 98.2191 165.067 98.1882 165.069 98.1551C165.075 98.1352 165.075 98.114 165.069 98.0941V98.0453C165.112 97.5817 165.106 96.8741 165.106 96.8741C165.271 96.9656 166.114 97.4048 166.114 97.1608C166.179 95.0611 166.031 92.9602 165.674 90.89C165.67 90.8778 165.662 90.8672 165.652 90.8596C165.641 90.8521 165.629 90.8481 165.616 90.8481C165.603 90.8481 165.591 90.8521 165.58 90.8596C165.57 90.8672 165.562 90.8778 165.558 90.89C165.491 92.8237 165.759 94.7574 165.717 96.7033C165.417 96.5417 165.096 96.4227 164.764 96.3495C164.697 96.3495 164.801 97.722 164.764 97.9233C164.382 97.9398 164.001 97.8792 163.643 97.745C163.285 97.6109 162.958 97.4059 162.682 97.1425C162.633 97.1303 162.578 97.1669 162.614 97.2218Z" fill="#263238"/>
<path d="M164.41 98.0331C164.135 98.3494 163.784 98.5907 163.39 98.7346C163.174 98.805 162.941 98.805 162.724 98.7346C162.248 98.5821 162.26 98.1246 162.37 97.7708C162.431 97.5725 162.515 97.382 162.621 97.2035C163.113 97.6631 163.74 97.9538 164.41 98.0331Z" fill="#263238"/>
<path d="M163.39 98.7346C163.174 98.805 162.941 98.805 162.724 98.7346C162.248 98.5821 162.26 98.1246 162.37 97.7708C162.624 97.793 162.863 97.9003 163.048 98.0753C163.233 98.2502 163.354 98.4826 163.39 98.7346Z" fill="#D3766A"/>
<path d="M154.083 95.7273C155.781 95.2698 156.722 89.6273 156.722 89.6273C156.722 89.6273 156.673 92.0368 157.125 91.9819C157.576 91.927 159.476 88.6879 159.714 86.3516C161.04 87.2491 162.477 87.9708 163.988 88.4988C166.12 89.1698 168.495 89.06 168.501 88.694C168.501 87.6082 167.567 84.7656 166.107 83.7408C165.043 82.9142 163.779 82.3825 162.443 82.1994C161.107 82.0163 159.747 82.1881 158.499 82.6977C154.975 83.9909 154.028 86.2296 153.485 87.962C152.941 89.6944 153.461 95.8981 154.083 95.7273Z" fill="#263238"/>
<path d="M161.216 96.5813C160.697 96.4746 160.218 96.2245 159.834 95.8594C159.45 95.4944 159.176 95.0291 159.044 94.5164C158.911 94.0037 158.925 93.4641 159.085 92.9591C159.244 92.454 159.542 92.0036 159.944 91.6592C160.347 91.3148 160.838 91.0901 161.362 91.0107C161.886 90.9312 162.422 91.0003 162.909 91.2099C163.396 91.4195 163.814 91.7613 164.116 92.1965C164.418 92.6317 164.592 93.1427 164.617 93.6716C164.652 94.4221 164.388 95.1557 163.882 95.7115C163.376 96.2673 162.67 96.5999 161.918 96.6362C161.683 96.649 161.447 96.6305 161.216 96.5813ZM162.279 91.3963C162.078 91.3574 161.872 91.3431 161.668 91.3536C161.048 91.3882 160.464 91.6576 160.035 92.107C159.607 92.5564 159.366 93.152 159.361 93.7726C159.357 94.3932 159.59 94.9921 160.012 95.4475C160.434 95.9029 161.014 96.1805 161.633 96.2239C162.253 96.2672 162.866 96.073 163.348 95.6808C163.829 95.2886 164.143 94.7278 164.225 94.1127C164.307 93.4975 164.152 92.8742 163.79 92.3695C163.429 91.8649 162.888 91.5169 162.279 91.3963Z" fill="#52AC6C"/>
<path d="M167.701 97.0998C166.639 96.8802 165.869 95.5992 166.022 94.123C166.069 93.4185 166.336 92.7464 166.785 92.2015C166.965 91.956 167.204 91.7608 167.481 91.6347C167.758 91.5087 168.063 91.456 168.366 91.4817C168.669 91.5074 168.96 91.6108 169.212 91.7817C169.463 91.9527 169.667 92.1855 169.802 92.4577C170.15 93.0727 170.299 93.78 170.229 94.4829C170.095 96.0384 169.045 97.2279 167.884 97.1242C167.823 97.1221 167.761 97.1139 167.701 97.0998ZM168.477 91.8782C168.428 91.8723 168.379 91.8723 168.33 91.8782C168.087 91.8709 167.845 91.9226 167.626 92.0288C167.407 92.135 167.217 92.2926 167.072 92.4882C166.676 92.9744 166.439 93.5708 166.394 94.1962C166.285 95.5443 166.962 96.7094 167.915 96.7887C168.868 96.868 169.747 95.8432 169.851 94.4951C169.921 93.8612 169.791 93.2212 169.478 92.6651C169.376 92.4708 169.234 92.3003 169.062 92.1646C168.889 92.029 168.69 91.9314 168.477 91.8782Z" fill="#52AC6C"/>
<path d="M164.489 93.9888L164.269 93.6777C164.733 93.3544 165.765 92.9579 166.388 93.7509L166.095 93.9888C165.533 93.2751 164.532 93.94 164.489 93.9888Z" fill="#52AC6C"/>
<path d="M151.83 93.6411L151.513 93.4398C151.604 93.2934 152.459 91.9758 153.314 91.9148C154.169 91.8538 159.14 92.7627 159.353 92.7993L159.28 93.1714C157.845 92.9091 153.961 92.2442 153.338 92.293C152.716 92.3418 152.056 93.2812 151.83 93.6411Z" fill="#52AC6C"/>
<path d="M155.598 93.7692C155.598 93.7692 154.267 90.5545 152.85 90.9754C151.433 91.3963 152.007 95.7456 153.369 96.624C153.536 96.7483 153.726 96.8375 153.928 96.8865C154.131 96.9355 154.341 96.9431 154.546 96.9089C154.752 96.8747 154.948 96.7994 155.123 96.6876C155.299 96.5757 155.45 96.4296 155.567 96.258L155.598 93.7692Z" fill="#D3766A"/>
<path d="M153.045 92.2198C153.045 92.2198 153.009 92.2198 153.045 92.2564C153.998 92.903 154.328 93.9888 154.493 95.0746C154.456 94.9536 154.393 94.8423 154.308 94.7486C154.223 94.6549 154.119 94.5812 154.002 94.5327C153.885 94.4843 153.759 94.4624 153.633 94.4685C153.506 94.4747 153.383 94.5087 153.271 94.5683C153.241 94.5683 153.271 94.6293 153.271 94.6354C153.466 94.6163 153.662 94.6583 153.831 94.7556C154.001 94.853 154.136 95.0007 154.218 95.1783C154.355 95.4772 154.46 95.7901 154.529 96.1116C154.529 96.2153 154.731 96.2031 154.725 96.1116V96.0811C155.06 94.7452 154.438 92.6651 153.045 92.2198Z" fill="#263238"/>
<path d="M164.312 82.6245C163.24 81.9322 162.071 81.4018 160.844 81.0507C159.47 80.6847 155.006 80.4407 153.821 81.1605C152.636 81.8803 151.793 86.0405 151.684 86.6505C151.574 87.2605 151.342 90.9693 152.551 92.0368C153.76 93.1043 154.743 86.8762 157.131 85.095C159.518 83.3138 164.312 82.6245 164.312 82.6245Z" fill="#52AC6C"/>
<path opacity="0.1" d="M164.312 82.6245C164.312 82.6245 159.518 83.2833 157.137 85.0645C154.755 86.8457 153.766 93.0738 152.551 92.0063C152.001 91.4465 151.696 90.692 151.702 89.9079C152.233 88.1206 153.357 85.3878 155.152 83.6371C156.825 81.9962 159.427 81.3984 162.077 81.4594C162.853 81.7854 163.601 82.1751 164.312 82.6245Z" fill="black"/>
<path d="M152.41 95.77C152.758 94.123 155.06 89.8957 157.186 87.5838C159.311 85.2719 164.74 84.4972 165.466 84.6375C167.225 84.9852 167.42 85.9246 167.726 85.8026C168.031 85.6806 166.712 83.7774 166.254 83.4114C165.796 83.0454 164.55 82.1609 163.781 82.0755C163.011 81.9901 158.187 81.8071 156.184 83.6005C154.181 85.3939 150.957 90.7253 151.207 92.2442C151.268 92.6041 151.702 92.8908 151.781 93.4093C151.885 94.0803 151.916 94.8489 152.05 95.3308C152.16 95.7212 152.38 95.9103 152.41 95.77Z" fill="#52AC6C"/>
<path d="M157.754 86.498C157.378 86.1941 157.031 85.8573 156.715 85.4915C156.387 85.1328 156.104 84.7354 155.873 84.3081C155.873 84.2776 155.806 84.3081 155.824 84.3081C155.994 84.7809 156.241 85.2221 156.557 85.6135C156.876 85.996 157.263 86.3165 157.699 86.559C157.747 86.62 157.79 86.5285 157.754 86.498Z" fill="#263238"/>
<path d="M152.618 94.1047C152.579 93.9804 152.535 93.8583 152.483 93.7387C152.436 93.5981 152.403 93.453 152.386 93.3056C152.39 93.025 152.363 92.7447 152.306 92.4699C152.224 92.2551 152.118 92.0504 151.989 91.8599C151.83 91.6542 151.748 91.3997 151.757 91.1401C151.757 91.1035 151.708 91.0913 151.702 91.1401C151.712 91.62 151.842 92.0897 152.08 92.5065C152.148 92.7988 152.185 93.0972 152.19 93.3971C152.222 93.6802 152.344 93.9456 152.538 94.1535C152.569 94.1718 152.63 94.1474 152.618 94.1047Z" fill="#263238"/>
<path d="M153.442 92.3845C153.301 92.1884 153.171 91.9847 153.051 91.7745C152.945 91.5573 152.853 91.3332 152.777 91.1035C152.703 90.8778 152.642 90.646 152.569 90.4203C152.496 90.1946 152.367 89.8896 152.3 89.6212C152.3 89.5846 152.239 89.6212 152.245 89.6212C152.319 89.9018 152.343 90.1946 152.41 90.4813C152.468 90.7284 152.543 90.971 152.636 91.2072C152.719 91.4343 152.823 91.6528 152.948 91.8599C153.065 92.0714 153.225 92.2562 153.418 92.4028C153.418 92.4028 153.448 92.4028 153.442 92.3845Z" fill="#263238"/>
<path d="M154.267 90.8412C153.958 90.4975 153.701 90.1112 153.503 89.6944C153.314 89.2857 153.143 88.8648 152.984 88.4744C152.984 88.4439 152.923 88.4744 152.929 88.4744C153.005 88.9373 153.14 89.3884 153.332 89.8164C153.424 90.0328 153.541 90.2376 153.68 90.4264C153.842 90.6113 154.024 90.7771 154.224 90.9205C154.224 90.9205 154.291 90.89 154.267 90.8412Z" fill="#263238"/>
<path d="M155.14 89.3711C154.982 89.2283 154.854 89.0564 154.761 88.8648C154.645 88.6635 154.529 88.45 154.419 88.2548C154.309 88.0596 154.212 87.8522 154.108 87.6448C153.99 87.4454 153.917 87.2227 153.894 86.9921C153.894 86.9616 153.839 86.9555 153.839 86.9921C153.825 87.2221 153.858 87.4525 153.937 87.6692C154.013 87.9135 154.111 88.1503 154.23 88.3768C154.344 88.5984 154.473 88.8124 154.615 89.0173C154.727 89.2113 154.898 89.365 155.103 89.4565C155.109 89.4589 155.115 89.4602 155.121 89.4603C155.127 89.4603 155.133 89.4592 155.139 89.4569C155.145 89.4547 155.15 89.4513 155.154 89.4471C155.158 89.4428 155.162 89.4377 155.164 89.4321C155.167 89.4265 155.168 89.4205 155.168 89.4144C155.168 89.4083 155.167 89.4022 155.165 89.3965C155.162 89.3909 155.159 89.3857 155.155 89.3814C155.151 89.377 155.146 89.3735 155.14 89.3711Z" fill="#263238"/>
<path d="M155.891 87.4618C155.757 87.291 155.622 87.1202 155.5 86.9372C155.378 86.7542 155.274 86.5651 155.164 86.376C155.054 86.1869 154.932 85.9795 154.835 85.766C154.835 85.7294 154.773 85.766 154.78 85.766C154.839 85.9867 154.915 86.2028 155.006 86.4126C155.101 86.6232 155.212 86.8271 155.335 87.0226C155.455 87.2109 155.586 87.3922 155.726 87.5655C155.86 87.7466 156.028 87.8999 156.221 88.0169C156.221 88.0169 156.288 88.0169 156.27 87.9681C156.161 87.787 156.034 87.6174 155.891 87.4618Z" fill="#263238"/>
<path d="M159.158 85.7233C159.027 85.4965 158.884 85.2766 158.731 85.0645C158.571 84.8505 158.397 84.6468 158.212 84.4545C157.859 84.0641 157.466 83.7123 157.039 83.4053C157.039 83.4053 156.978 83.4053 157.002 83.448C157.692 84.2288 158.425 84.9791 159.115 85.7721C159.134 85.7843 159.176 85.7538 159.158 85.7233Z" fill="#263238"/>
<path d="M160.361 84.4362C160.22 84.2144 160.054 84.0097 159.866 83.8262C159.466 83.4476 159.023 83.116 158.547 82.838C158.517 82.838 158.486 82.838 158.517 82.8807C158.908 83.2223 159.305 83.5639 159.677 83.9299C159.86 84.1129 160.044 84.302 160.208 84.5033C160.373 84.7046 160.483 84.9364 160.642 85.1438H160.679C160.618 84.8902 160.51 84.6502 160.361 84.4362Z" fill="#263238"/>
<path d="M162.95 83.2833C162.798 83.1186 162.633 82.96 162.468 82.8014C162.312 82.6417 162.133 82.506 161.937 82.3988C161.906 82.3988 161.882 82.3988 161.906 82.4476C162.211 82.7648 162.517 83.0881 162.804 83.4114C163.058 83.7284 163.277 84.072 163.457 84.4362C163.457 84.4362 163.494 84.4362 163.488 84.4362C163.433 84.0055 163.245 83.6026 162.95 83.2833Z" fill="#263238"/>
<path d="M164.269 83.1857C163.987 82.8423 163.644 82.5547 163.256 82.3378C163.225 82.3378 163.201 82.3683 163.225 82.3866C163.57 82.6379 163.875 82.9403 164.129 83.2833C164.389 83.6249 164.612 83.9929 164.795 84.3813C164.795 84.3813 164.837 84.3813 164.831 84.3813C164.743 83.9435 164.55 83.5334 164.269 83.1857Z" fill="#263238"/>
<path d="M165.778 84.18C165.749 84.0857 165.712 83.9939 165.668 83.9055C165.579 83.7278 165.475 83.5583 165.356 83.3992C165.105 83.0865 164.823 82.8004 164.514 82.5452C164.514 82.5452 164.453 82.5452 164.477 82.5879C164.772 82.8437 165.034 83.1346 165.259 83.4541C165.37 83.6116 165.47 83.7767 165.558 83.9482C165.601 84.0336 165.637 84.119 165.674 84.2044C165.699 84.2932 165.734 84.3791 165.778 84.4606H165.827C165.827 84.3649 165.811 84.2699 165.778 84.18Z" fill="#263238"/>
<path d="M166.767 84.3813C166.611 84.0958 166.425 83.8279 166.211 83.5822C166.101 83.4602 165.985 83.3443 165.875 83.2162C165.875 83.2162 165.808 83.2162 165.839 83.2528C165.951 83.377 166.053 83.5095 166.144 83.6493L166.407 84.0397L166.669 84.4301C166.746 84.571 166.834 84.7056 166.932 84.8327C166.932 84.8327 166.975 84.8327 166.969 84.8327C166.922 84.674 166.854 84.5222 166.767 84.3813Z" fill="#263238"/>
<path d="M130.561 151.89C130.64 152 168.654 155.105 169.033 154.739C169.173 154.604 170.37 151.792 169.942 147.516C168.758 135.81 164.245 113.405 160.172 107.043C158.786 104.871 153.454 103.114 151.097 105.085C146.175 109.153 136.27 131.083 131.904 143.429C130.182 148.389 130.481 151.798 130.561 151.89Z" fill="#A6A6A6"/>
<path d="M155.665 111.752C157.552 116.723 167.06 135.194 173.985 136.439C182.376 137.945 193.264 136.847 198.119 134.908C200.842 133.822 194.955 120.481 192.384 121.152C188.336 122.207 180.599 122.311 179.06 122.311C177.521 122.311 167.53 112.85 161.906 107.97C156.844 103.59 154.554 108.824 155.665 111.752Z" fill="#D3766A"/>
<path d="M195.493 135.548C203.236 133.913 209.843 128.124 210.759 126.91C211.529 125.873 211.914 125.337 211.914 125.337C213.33 123.507 213.08 122.159 213.08 122.159C213.08 122.159 215.339 120.524 214.576 118.999C213.727 117.285 210.723 119.914 208.182 120.347C202.363 121.347 193.813 121.14 192.11 121.262L195.493 135.548Z" fill="#D3766A"/>
<path d="M202.802 125.66C204.508 125.387 206.193 124.999 207.846 124.501C209.618 123.837 211.339 123.044 212.994 122.128C213.005 122.126 213.015 122.126 213.025 122.13C213.034 122.134 213.043 122.141 213.048 122.15C213.053 122.159 213.056 122.169 213.055 122.179C213.054 122.19 213.05 122.2 213.043 122.207C210.031 124.318 206.498 125.565 202.827 125.813C202.741 125.825 202.741 125.691 202.802 125.66Z" fill="#263238"/>
<path d="M202.894 129.265C204.537 128.856 207.419 128.118 211.865 125.288C209.322 127.462 206.225 128.888 202.918 129.405C202.839 129.448 202.784 129.32 202.894 129.265Z" fill="#263238"/>
<path d="M201.074 121.109C200.268 120.939 200.354 120.499 201.685 119.889C203.016 119.279 208.775 117.779 208.091 115.815C207.407 113.85 199.303 116.022 197.196 117.279C195.392 118.473 193.691 119.815 192.11 121.292C193.752 121.152 197.813 121.274 201.074 121.109Z" fill="#D3766A"/>
<path d="M189.172 120.975L193.758 137.299C193.758 137.299 178.492 139.355 172.654 136.658C166.816 133.962 159.708 121.561 156.447 114.375C153.186 107.189 155.592 101.528 164.721 109.94C173.851 118.352 178.315 121.652 178.98 121.841C179.646 122.031 189.172 120.975 189.172 120.975Z" fill="#A6A6A6"/>
<path d="M166.425 131.071C165.985 130.345 162.303 124.971 161.955 124.361C161.24 123.183 160.532 122.006 159.842 120.817C158.444 118.419 157.094 115.985 155.567 113.68L155.525 113.71C156.233 115.339 157.045 116.931 157.912 118.492L157.705 118.279C157.084 117.701 156.495 117.09 155.94 116.449C155.903 116.406 155.836 116.449 155.873 116.516C156.428 117.126 156.923 117.828 157.46 118.468C157.717 118.785 157.979 119.078 158.26 119.383L158.608 119.725C158.883 120.2 159.164 120.676 159.451 121.146C160.172 122.366 160.966 123.501 161.717 124.684C163.036 126.764 165.991 130.564 166.376 131.119C166.394 131.187 166.462 131.15 166.425 131.071Z" fill="#263238"/>
<path d="M190.345 137.061C190.143 135.78 189.734 134.517 189.423 133.261C189.111 132.004 188.757 130.79 188.415 129.558C187.719 127.069 187.078 124.544 186.223 122.11C186.226 122.102 186.226 122.094 186.226 122.087C186.225 122.079 186.222 122.071 186.217 122.065C186.213 122.058 186.207 122.053 186.2 122.05C186.193 122.046 186.185 122.044 186.177 122.044C186.169 122.044 186.161 122.046 186.154 122.05C186.147 122.053 186.141 122.058 186.137 122.065C186.132 122.071 186.13 122.079 186.129 122.087C186.128 122.094 186.128 122.102 186.131 122.11C186.583 124.678 187.298 127.203 187.963 129.716C188.311 130.979 188.672 132.23 189.044 133.48C189.377 134.7 189.774 135.902 190.235 137.079C190.278 137.152 190.357 137.116 190.345 137.061Z" fill="#263238"/>
<path d="M184.708 121.341C183.2 121.384 181.704 121.591 180.196 121.628C179.526 121.66 178.863 121.474 178.309 121.097C177.698 120.682 171.145 115.686 170.022 114.704C169.979 114.662 169.912 114.735 169.955 114.771C171.139 115.754 175.359 119.432 176.58 120.42C177.113 120.888 177.68 121.314 178.278 121.695C178.841 122.021 179.498 122.144 180.141 122.043C181.667 121.86 183.194 121.713 184.727 121.463C184.794 121.451 184.776 121.341 184.708 121.341Z" fill="#263238"/>
<path d="M158.657 105.64C155.738 103.81 147.488 102.59 144.001 104.633C139.605 107.195 134.695 123.336 136.356 124.41C139.317 126.331 150.542 117.48 153.1 113.716C155.659 109.953 158.657 105.64 158.657 105.64Z" fill="#A6A6A6"/>
<path d="M156.202 110.41C155.628 110.941 155.03 111.465 154.462 112.008C155.244 110.916 156.038 109.831 156.789 108.72C156.789 108.684 156.758 108.635 156.728 108.672C155.712 109.787 154.756 110.956 153.864 112.173C152.917 113.393 151.958 114.613 150.945 115.748C149.951 116.918 148.871 118.013 147.714 119.023C146.468 120.054 145.15 120.994 143.769 121.835C142.992 122.315 142.206 122.781 141.412 123.232C140.557 123.707 139.667 124.115 138.75 124.452C138.585 124.507 138.689 124.568 138.75 124.55C139.531 124.317 140.29 124.013 141.015 123.641C141.772 123.269 142.536 122.897 143.287 122.506C144.735 121.788 146.12 120.949 147.427 119.999C149.968 118.102 151.891 115.632 153.699 113.057C153.737 113.009 153.771 112.958 153.803 112.905C154.144 112.582 154.48 112.246 154.804 111.898C155.274 111.398 155.763 110.929 156.27 110.465C156.271 110.456 156.271 110.447 156.268 110.439C156.265 110.43 156.26 110.423 156.253 110.417C156.246 110.411 156.237 110.408 156.229 110.406C156.22 110.405 156.211 110.406 156.202 110.41Z" fill="#263238"/>
</svg>
